M48
; DRILL file {KiCad 8.0.5} date 2024-10-04T20:46:04-0400
; FORMAT={-:-/ absolute / inch / decimal}
; #@! TF.CreationDate,2024-10-04T20:46:04-04:00
; #@! TF.GenerationSoftware,Kicad,Pcbnew,8.0.5
; #@! TF.FileFunction,Plated,1,2,PTH
FMAT,2
INCH
; #@! TA.AperFunction,Plated,PTH,ViaDrill
T1C0.0118
; #@! TA.AperFunction,Plated,PTH,ComponentDrill
T2C0.0394
; #@! TA.AperFunction,Plated,PTH,ComponentDrill
T3C0.0400
%
G90
G05
T1
X6.0749Y-4.4783
X6.1024Y-4.0748
X6.1063Y-3.813
X6.2008Y-3.7303
X6.2008Y-3.8878
X6.2835Y-3.8484
X6.2992Y-3.9862
X6.3819Y-3.8681
X6.3917Y-4.2028
X6.3976Y-4.2815
X6.4067Y-3.8091
X6.4067Y-4.1437
X6.4548Y-3.9154
X6.4567Y-3.6713
X6.4567Y-3.9764
X6.4567Y-4.252
X6.6067Y-3.937
X6.6067Y-4.3012
X6.7717Y-4.4094
X6.8012Y-4.1043
X6.8209Y-4.4685
T2
X7.0297Y-3.8606
X7.0297Y-3.9606
X7.0297Y-4.0606
X7.0297Y-4.1606
X7.0297Y-4.2606
X7.0297Y-4.3606
T3
X5.7273Y-4.5496
X5.7273Y-4.6496
X5.7303Y-3.5063
X5.7303Y-3.6063
X5.8273Y-4.5496
X5.8273Y-4.6496
X5.8303Y-3.5063
X5.8303Y-3.6063
X5.9273Y-4.5496
X5.9273Y-4.6496
X5.9303Y-3.5063
X5.9303Y-3.6063
X6.0273Y-4.5496
X6.0273Y-4.6496
X6.0303Y-3.5063
X6.0303Y-3.6063
X6.1273Y-4.5496
X6.1273Y-4.6496
X6.1303Y-3.5063
X6.1303Y-3.6063
X6.2273Y-4.5496
X6.2273Y-4.6496
X6.2303Y-3.5063
X6.2303Y-3.6063
X6.3273Y-4.5496
X6.3273Y-4.6496
X6.3303Y-3.5063
X6.3303Y-3.6063
X6.4273Y-4.5496
X6.4273Y-4.6496
X6.4303Y-3.5063
X6.4303Y-3.6063
X6.5273Y-4.5496
X6.5273Y-4.6496
X6.5303Y-3.5063
X6.5303Y-3.6063
X6.6273Y-4.5496
X6.6273Y-4.6496
X6.6303Y-3.5063
X6.6303Y-3.6063
X6.7273Y-4.5496
X6.7273Y-4.6496
X6.7303Y-3.5063
X6.7303Y-3.6063
M30
