%TF.GenerationSoftware,KiCad,Pcbnew,8.0.5*%
%TF.CreationDate,2024-10-04T20:46:04-04:00*%
%TF.ProjectId,memory card,6d656d6f-7279-4206-9361-72642e6b6963,V2*%
%TF.SameCoordinates,Original*%
%TF.FileFunction,Drillmap*%
%TF.FilePolarity,Positive*%
%FSLAX45Y45*%
G04 Gerber Fmt 4.5, Leading zero omitted, Abs format (unit mm)*
G04 Created by KiCad (PCBNEW 8.0.5) date 2024-10-04 20:46:04*
%MOMM*%
%LPD*%
G01*
G04 APERTURE LIST*
%ADD10C,0.050000*%
%ADD11C,0.200000*%
G04 APERTURE END LIST*
D10*
X18205319Y-11956000D02*
G75*
G02*
X18155319Y-12005999I-49999J0D01*
G01*
X18205319Y-11956000D02*
X18205319Y-9106000D01*
X13755319Y-8706000D02*
X17805319Y-8706000D01*
X17805319Y-8706000D02*
G75*
G02*
X18205320Y-9106000I1J-400000D01*
G01*
X13355319Y-11956000D02*
X13355319Y-9106000D01*
X13405319Y-12006000D02*
G75*
G02*
X13355320Y-11956000I1J50000D01*
G01*
X13355319Y-9106000D02*
G75*
G02*
X13755319Y-8705999I400001J0D01*
G01*
X13405319Y-12006000D02*
X18155319Y-12006000D01*
D11*
X13613596Y-12319984D02*
X13613596Y-12119984D01*
X13613596Y-12119984D02*
X13661215Y-12119984D01*
X13661215Y-12119984D02*
X13689786Y-12129508D01*
X13689786Y-12129508D02*
X13708834Y-12148555D01*
X13708834Y-12148555D02*
X13718358Y-12167603D01*
X13718358Y-12167603D02*
X13727881Y-12205698D01*
X13727881Y-12205698D02*
X13727881Y-12234269D01*
X13727881Y-12234269D02*
X13718358Y-12272365D01*
X13718358Y-12272365D02*
X13708834Y-12291412D01*
X13708834Y-12291412D02*
X13689786Y-12310460D01*
X13689786Y-12310460D02*
X13661215Y-12319984D01*
X13661215Y-12319984D02*
X13613596Y-12319984D01*
X13813596Y-12319984D02*
X13813596Y-12186650D01*
X13813596Y-12224746D02*
X13823119Y-12205698D01*
X13823119Y-12205698D02*
X13832643Y-12196174D01*
X13832643Y-12196174D02*
X13851691Y-12186650D01*
X13851691Y-12186650D02*
X13870739Y-12186650D01*
X13937405Y-12319984D02*
X13937405Y-12186650D01*
X13937405Y-12119984D02*
X13927881Y-12129508D01*
X13927881Y-12129508D02*
X13937405Y-12139031D01*
X13937405Y-12139031D02*
X13946929Y-12129508D01*
X13946929Y-12129508D02*
X13937405Y-12119984D01*
X13937405Y-12119984D02*
X13937405Y-12139031D01*
X14061215Y-12319984D02*
X14042167Y-12310460D01*
X14042167Y-12310460D02*
X14032643Y-12291412D01*
X14032643Y-12291412D02*
X14032643Y-12119984D01*
X14165977Y-12319984D02*
X14146929Y-12310460D01*
X14146929Y-12310460D02*
X14137405Y-12291412D01*
X14137405Y-12291412D02*
X14137405Y-12119984D01*
X14394548Y-12319984D02*
X14394548Y-12119984D01*
X14394548Y-12119984D02*
X14461215Y-12262841D01*
X14461215Y-12262841D02*
X14527881Y-12119984D01*
X14527881Y-12119984D02*
X14527881Y-12319984D01*
X14708834Y-12319984D02*
X14708834Y-12215222D01*
X14708834Y-12215222D02*
X14699310Y-12196174D01*
X14699310Y-12196174D02*
X14680262Y-12186650D01*
X14680262Y-12186650D02*
X14642167Y-12186650D01*
X14642167Y-12186650D02*
X14623119Y-12196174D01*
X14708834Y-12310460D02*
X14689786Y-12319984D01*
X14689786Y-12319984D02*
X14642167Y-12319984D01*
X14642167Y-12319984D02*
X14623119Y-12310460D01*
X14623119Y-12310460D02*
X14613596Y-12291412D01*
X14613596Y-12291412D02*
X14613596Y-12272365D01*
X14613596Y-12272365D02*
X14623119Y-12253317D01*
X14623119Y-12253317D02*
X14642167Y-12243793D01*
X14642167Y-12243793D02*
X14689786Y-12243793D01*
X14689786Y-12243793D02*
X14708834Y-12234269D01*
X14804072Y-12186650D02*
X14804072Y-12386650D01*
X14804072Y-12196174D02*
X14823119Y-12186650D01*
X14823119Y-12186650D02*
X14861215Y-12186650D01*
X14861215Y-12186650D02*
X14880262Y-12196174D01*
X14880262Y-12196174D02*
X14889786Y-12205698D01*
X14889786Y-12205698D02*
X14899310Y-12224746D01*
X14899310Y-12224746D02*
X14899310Y-12281888D01*
X14899310Y-12281888D02*
X14889786Y-12300936D01*
X14889786Y-12300936D02*
X14880262Y-12310460D01*
X14880262Y-12310460D02*
X14861215Y-12319984D01*
X14861215Y-12319984D02*
X14823119Y-12319984D01*
X14823119Y-12319984D02*
X14804072Y-12310460D01*
X14985024Y-12300936D02*
X14994548Y-12310460D01*
X14994548Y-12310460D02*
X14985024Y-12319984D01*
X14985024Y-12319984D02*
X14975500Y-12310460D01*
X14975500Y-12310460D02*
X14985024Y-12300936D01*
X14985024Y-12300936D02*
X14985024Y-12319984D01*
X14985024Y-12196174D02*
X14994548Y-12205698D01*
X14994548Y-12205698D02*
X14985024Y-12215222D01*
X14985024Y-12215222D02*
X14975500Y-12205698D01*
X14975500Y-12205698D02*
X14985024Y-12196174D01*
X14985024Y-12196174D02*
X14985024Y-12215222D01*
M02*
