%TF.GenerationSoftware,KiCad,Pcbnew,8.0.5*%
%TF.CreationDate,2024-10-04T20:46:01-04:00*%
%TF.ProjectId,memory card,6d656d6f-7279-4206-9361-72642e6b6963,V2*%
%TF.SameCoordinates,Original*%
%TF.FileFunction,Legend,Top*%
%TF.FilePolarity,Positive*%
%FSLAX46Y46*%
G04 Gerber Fmt 4.6, Leading zero omitted, Abs format (unit mm)*
G04 Created by KiCad (PCBNEW 8.0.5) date 2024-10-04 20:46:01*
%MOMM*%
%LPD*%
G01*
G04 APERTURE LIST*
%ADD10C,0.254000*%
%ADD11C,0.150000*%
%ADD12C,0.200000*%
%ADD13C,0.100000*%
%ADD14C,0.120000*%
G04 APERTURE END LIST*
D10*
X143644507Y-103408332D02*
X144551650Y-103408332D01*
X144551650Y-103408332D02*
X144733078Y-103468809D01*
X144733078Y-103468809D02*
X144854031Y-103589761D01*
X144854031Y-103589761D02*
X144914507Y-103771190D01*
X144914507Y-103771190D02*
X144914507Y-103892142D01*
X143765459Y-102864047D02*
X143704983Y-102803571D01*
X143704983Y-102803571D02*
X143644507Y-102682618D01*
X143644507Y-102682618D02*
X143644507Y-102380237D01*
X143644507Y-102380237D02*
X143704983Y-102259285D01*
X143704983Y-102259285D02*
X143765459Y-102198809D01*
X143765459Y-102198809D02*
X143886411Y-102138332D01*
X143886411Y-102138332D02*
X144007364Y-102138332D01*
X144007364Y-102138332D02*
X144188792Y-102198809D01*
X144188792Y-102198809D02*
X144914507Y-102924523D01*
X144914507Y-102924523D02*
X144914507Y-102138332D01*
X162510237Y-98074318D02*
X162510237Y-96804318D01*
X163840714Y-97953365D02*
X163780238Y-98013842D01*
X163780238Y-98013842D02*
X163598809Y-98074318D01*
X163598809Y-98074318D02*
X163477857Y-98074318D01*
X163477857Y-98074318D02*
X163296428Y-98013842D01*
X163296428Y-98013842D02*
X163175476Y-97892889D01*
X163175476Y-97892889D02*
X163114999Y-97771937D01*
X163114999Y-97771937D02*
X163054523Y-97530032D01*
X163054523Y-97530032D02*
X163054523Y-97348603D01*
X163054523Y-97348603D02*
X163114999Y-97106699D01*
X163114999Y-97106699D02*
X163175476Y-96985746D01*
X163175476Y-96985746D02*
X163296428Y-96864794D01*
X163296428Y-96864794D02*
X163477857Y-96804318D01*
X163477857Y-96804318D02*
X163598809Y-96804318D01*
X163598809Y-96804318D02*
X163780238Y-96864794D01*
X163780238Y-96864794D02*
X163840714Y-96925270D01*
X164324523Y-96925270D02*
X164384999Y-96864794D01*
X164384999Y-96864794D02*
X164505952Y-96804318D01*
X164505952Y-96804318D02*
X164808333Y-96804318D01*
X164808333Y-96804318D02*
X164929285Y-96864794D01*
X164929285Y-96864794D02*
X164989761Y-96925270D01*
X164989761Y-96925270D02*
X165050238Y-97046222D01*
X165050238Y-97046222D02*
X165050238Y-97167175D01*
X165050238Y-97167175D02*
X164989761Y-97348603D01*
X164989761Y-97348603D02*
X164264047Y-98074318D01*
X164264047Y-98074318D02*
X165050238Y-98074318D01*
D11*
X171833333Y-106454819D02*
X171500000Y-105978628D01*
X171261905Y-106454819D02*
X171261905Y-105454819D01*
X171261905Y-105454819D02*
X171642857Y-105454819D01*
X171642857Y-105454819D02*
X171738095Y-105502438D01*
X171738095Y-105502438D02*
X171785714Y-105550057D01*
X171785714Y-105550057D02*
X171833333Y-105645295D01*
X171833333Y-105645295D02*
X171833333Y-105788152D01*
X171833333Y-105788152D02*
X171785714Y-105883390D01*
X171785714Y-105883390D02*
X171738095Y-105931009D01*
X171738095Y-105931009D02*
X171642857Y-105978628D01*
X171642857Y-105978628D02*
X171261905Y-105978628D01*
X172166667Y-105454819D02*
X172785714Y-105454819D01*
X172785714Y-105454819D02*
X172452381Y-105835771D01*
X172452381Y-105835771D02*
X172595238Y-105835771D01*
X172595238Y-105835771D02*
X172690476Y-105883390D01*
X172690476Y-105883390D02*
X172738095Y-105931009D01*
X172738095Y-105931009D02*
X172785714Y-106026247D01*
X172785714Y-106026247D02*
X172785714Y-106264342D01*
X172785714Y-106264342D02*
X172738095Y-106359580D01*
X172738095Y-106359580D02*
X172690476Y-106407200D01*
X172690476Y-106407200D02*
X172595238Y-106454819D01*
X172595238Y-106454819D02*
X172309524Y-106454819D01*
X172309524Y-106454819D02*
X172214286Y-106407200D01*
X172214286Y-106407200D02*
X172166667Y-106359580D01*
X160033333Y-113109580D02*
X159985714Y-113157200D01*
X159985714Y-113157200D02*
X159842857Y-113204819D01*
X159842857Y-113204819D02*
X159747619Y-113204819D01*
X159747619Y-113204819D02*
X159604762Y-113157200D01*
X159604762Y-113157200D02*
X159509524Y-113061961D01*
X159509524Y-113061961D02*
X159461905Y-112966723D01*
X159461905Y-112966723D02*
X159414286Y-112776247D01*
X159414286Y-112776247D02*
X159414286Y-112633390D01*
X159414286Y-112633390D02*
X159461905Y-112442914D01*
X159461905Y-112442914D02*
X159509524Y-112347676D01*
X159509524Y-112347676D02*
X159604762Y-112252438D01*
X159604762Y-112252438D02*
X159747619Y-112204819D01*
X159747619Y-112204819D02*
X159842857Y-112204819D01*
X159842857Y-112204819D02*
X159985714Y-112252438D01*
X159985714Y-112252438D02*
X160033333Y-112300057D01*
X160985714Y-113204819D02*
X160414286Y-113204819D01*
X160700000Y-113204819D02*
X160700000Y-112204819D01*
X160700000Y-112204819D02*
X160604762Y-112347676D01*
X160604762Y-112347676D02*
X160509524Y-112442914D01*
X160509524Y-112442914D02*
X160414286Y-112490533D01*
X171833333Y-108954819D02*
X171500000Y-108478628D01*
X171261905Y-108954819D02*
X171261905Y-107954819D01*
X171261905Y-107954819D02*
X171642857Y-107954819D01*
X171642857Y-107954819D02*
X171738095Y-108002438D01*
X171738095Y-108002438D02*
X171785714Y-108050057D01*
X171785714Y-108050057D02*
X171833333Y-108145295D01*
X171833333Y-108145295D02*
X171833333Y-108288152D01*
X171833333Y-108288152D02*
X171785714Y-108383390D01*
X171785714Y-108383390D02*
X171738095Y-108431009D01*
X171738095Y-108431009D02*
X171642857Y-108478628D01*
X171642857Y-108478628D02*
X171261905Y-108478628D01*
X172690476Y-108288152D02*
X172690476Y-108954819D01*
X172452381Y-107907200D02*
X172214286Y-108621485D01*
X172214286Y-108621485D02*
X172833333Y-108621485D01*
X171833333Y-103704819D02*
X171500000Y-103228628D01*
X171261905Y-103704819D02*
X171261905Y-102704819D01*
X171261905Y-102704819D02*
X171642857Y-102704819D01*
X171642857Y-102704819D02*
X171738095Y-102752438D01*
X171738095Y-102752438D02*
X171785714Y-102800057D01*
X171785714Y-102800057D02*
X171833333Y-102895295D01*
X171833333Y-102895295D02*
X171833333Y-103038152D01*
X171833333Y-103038152D02*
X171785714Y-103133390D01*
X171785714Y-103133390D02*
X171738095Y-103181009D01*
X171738095Y-103181009D02*
X171642857Y-103228628D01*
X171642857Y-103228628D02*
X171261905Y-103228628D01*
X172785714Y-103704819D02*
X172214286Y-103704819D01*
X172500000Y-103704819D02*
X172500000Y-102704819D01*
X172500000Y-102704819D02*
X172404762Y-102847676D01*
X172404762Y-102847676D02*
X172309524Y-102942914D01*
X172309524Y-102942914D02*
X172214286Y-102990533D01*
X171833333Y-111454819D02*
X171500000Y-110978628D01*
X171261905Y-111454819D02*
X171261905Y-110454819D01*
X171261905Y-110454819D02*
X171642857Y-110454819D01*
X171642857Y-110454819D02*
X171738095Y-110502438D01*
X171738095Y-110502438D02*
X171785714Y-110550057D01*
X171785714Y-110550057D02*
X171833333Y-110645295D01*
X171833333Y-110645295D02*
X171833333Y-110788152D01*
X171833333Y-110788152D02*
X171785714Y-110883390D01*
X171785714Y-110883390D02*
X171738095Y-110931009D01*
X171738095Y-110931009D02*
X171642857Y-110978628D01*
X171642857Y-110978628D02*
X171261905Y-110978628D01*
X172214286Y-110550057D02*
X172261905Y-110502438D01*
X172261905Y-110502438D02*
X172357143Y-110454819D01*
X172357143Y-110454819D02*
X172595238Y-110454819D01*
X172595238Y-110454819D02*
X172690476Y-110502438D01*
X172690476Y-110502438D02*
X172738095Y-110550057D01*
X172738095Y-110550057D02*
X172785714Y-110645295D01*
X172785714Y-110645295D02*
X172785714Y-110740533D01*
X172785714Y-110740533D02*
X172738095Y-110883390D01*
X172738095Y-110883390D02*
X172166667Y-111454819D01*
X172166667Y-111454819D02*
X172785714Y-111454819D01*
X178219855Y-95184819D02*
X178219855Y-95899104D01*
X178219855Y-95899104D02*
X178172236Y-96041961D01*
X178172236Y-96041961D02*
X178076998Y-96137200D01*
X178076998Y-96137200D02*
X177934141Y-96184819D01*
X177934141Y-96184819D02*
X177838903Y-96184819D01*
X178600808Y-95184819D02*
X179219855Y-95184819D01*
X179219855Y-95184819D02*
X178886522Y-95565771D01*
X178886522Y-95565771D02*
X179029379Y-95565771D01*
X179029379Y-95565771D02*
X179124617Y-95613390D01*
X179124617Y-95613390D02*
X179172236Y-95661009D01*
X179172236Y-95661009D02*
X179219855Y-95756247D01*
X179219855Y-95756247D02*
X179219855Y-95994342D01*
X179219855Y-95994342D02*
X179172236Y-96089580D01*
X179172236Y-96089580D02*
X179124617Y-96137200D01*
X179124617Y-96137200D02*
X179029379Y-96184819D01*
X179029379Y-96184819D02*
X178743665Y-96184819D01*
X178743665Y-96184819D02*
X178648427Y-96137200D01*
X178648427Y-96137200D02*
X178600808Y-96089580D01*
X154988095Y-101204819D02*
X154988095Y-102014342D01*
X154988095Y-102014342D02*
X155035714Y-102109580D01*
X155035714Y-102109580D02*
X155083333Y-102157200D01*
X155083333Y-102157200D02*
X155178571Y-102204819D01*
X155178571Y-102204819D02*
X155369047Y-102204819D01*
X155369047Y-102204819D02*
X155464285Y-102157200D01*
X155464285Y-102157200D02*
X155511904Y-102109580D01*
X155511904Y-102109580D02*
X155559523Y-102014342D01*
X155559523Y-102014342D02*
X155559523Y-101204819D01*
X156559523Y-102204819D02*
X155988095Y-102204819D01*
X156273809Y-102204819D02*
X156273809Y-101204819D01*
X156273809Y-101204819D02*
X156178571Y-101347676D01*
X156178571Y-101347676D02*
X156083333Y-101442914D01*
X156083333Y-101442914D02*
X155988095Y-101490533D01*
D12*
%TO.C,J2*%
X153178189Y-105760000D02*
G75*
G02*
X153078189Y-105760000I-50000J0D01*
G01*
X153078189Y-105760000D02*
G75*
G02*
X153178189Y-105760000I50000J0D01*
G01*
X153078189Y-105760000D02*
G75*
G02*
X153178189Y-105760000I50000J0D01*
G01*
X153178189Y-105760000D02*
X153178189Y-105760000D01*
X153178189Y-105760000D02*
X153178189Y-105760000D01*
X153078189Y-105760000D02*
X153078189Y-105760000D01*
D13*
X151678189Y-109910000D02*
X151678189Y-108235000D01*
X148428189Y-96060000D02*
X151653189Y-96060000D01*
X145928189Y-96060000D02*
X141928189Y-96060000D01*
X137928189Y-109910000D02*
X151678189Y-109910000D01*
X135703189Y-97235000D02*
X135678189Y-108485000D01*
D12*
%TO.C,IC2*%
X160075000Y-94975000D02*
X161550000Y-94975000D01*
X161900000Y-95000000D02*
X165600000Y-95000000D01*
X161900000Y-100000000D02*
X161900000Y-95000000D01*
X165600000Y-95000000D02*
X165600000Y-100000000D01*
X165600000Y-100000000D02*
X161900000Y-100000000D01*
D14*
%TO.C,R3*%
X173137500Y-104750000D02*
X173137500Y-106750000D01*
X173137500Y-106750000D02*
X176537500Y-106750000D01*
X176537500Y-104750000D02*
X173137500Y-104750000D01*
X176537500Y-106750000D02*
X176537500Y-104750000D01*
%TO.C,C1*%
X156175000Y-113550002D02*
X158775000Y-113550000D01*
X158775000Y-111949998D02*
X156175000Y-111950000D01*
X156175000Y-113550002D02*
G75*
G02*
X156175000Y-111950000I840224J800001D01*
G01*
X158775000Y-111949998D02*
G75*
G02*
X158775000Y-113550000I-840224J-800001D01*
G01*
%TO.C,R4*%
X173137500Y-107250000D02*
X173137500Y-109250000D01*
X173137500Y-109250000D02*
X176537500Y-109250000D01*
X176537500Y-107250000D02*
X173137500Y-107250000D01*
X176537500Y-109250000D02*
X176537500Y-107250000D01*
%TO.C,R1*%
X173137500Y-102000000D02*
X173137500Y-104000000D01*
X173137500Y-104000000D02*
X176537500Y-104000000D01*
X176537500Y-102000000D02*
X173137500Y-102000000D01*
X176537500Y-104000000D02*
X176537500Y-102000000D01*
%TO.C,R2*%
X173137500Y-109750000D02*
X173137500Y-111750000D01*
X173137500Y-111750000D02*
X176537500Y-111750000D01*
X176537500Y-109750000D02*
X173137500Y-109750000D01*
X176537500Y-111750000D02*
X176537500Y-109750000D01*
%TO.C,J3*%
X177223189Y-96730000D02*
X178553189Y-96730000D01*
X177223189Y-98060000D02*
X177223189Y-96730000D01*
X177223189Y-99330000D02*
X177223189Y-112090000D01*
X177223189Y-99330000D02*
X179883189Y-99330000D01*
X177223189Y-112090000D02*
X179883189Y-112090000D01*
X179883189Y-99330000D02*
X179883189Y-112090000D01*
%TO.C,U1*%
X155090000Y-104990000D02*
X156350000Y-104990000D01*
X155090000Y-108750000D02*
X155090000Y-104990000D01*
X161910000Y-104990000D02*
X160650000Y-104990000D01*
X161910000Y-108750000D02*
X161910000Y-104990000D01*
X155190000Y-110030000D02*
X154860000Y-110270000D01*
X154860000Y-109790000D01*
X155190000Y-110030000D01*
G36*
X155190000Y-110030000D02*
G01*
X154860000Y-110270000D01*
X154860000Y-109790000D01*
X155190000Y-110030000D01*
G37*
%TD*%
M02*
