%TF.GenerationSoftware,KiCad,Pcbnew,8.0.5*%
%TF.CreationDate,2024-10-04T20:46:01-04:00*%
%TF.ProjectId,memory card,6d656d6f-7279-4206-9361-72642e6b6963,V2*%
%TF.SameCoordinates,Original*%
%TF.FileFunction,Soldermask,Top*%
%TF.FilePolarity,Negative*%
%FSLAX46Y46*%
G04 Gerber Fmt 4.6, Leading zero omitted, Abs format (unit mm)*
G04 Created by KiCad (PCBNEW 8.0.5) date 2024-10-04 20:46:01*
%MOMM*%
%LPD*%
G01*
G04 APERTURE LIST*
G04 Aperture macros list*
%AMRoundRect*
0 Rectangle with rounded corners*
0 $1 Rounding radius*
0 $2 $3 $4 $5 $6 $7 $8 $9 X,Y pos of 4 corners*
0 Add a 4 corners polygon primitive as box body*
4,1,4,$2,$3,$4,$5,$6,$7,$8,$9,$2,$3,0*
0 Add four circle primitives for the rounded corners*
1,1,$1+$1,$2,$3*
1,1,$1+$1,$4,$5*
1,1,$1+$1,$6,$7*
1,1,$1+$1,$8,$9*
0 Add four rect primitives between the rounded corners*
20,1,$1+$1,$2,$3,$4,$5,0*
20,1,$1+$1,$4,$5,$6,$7,0*
20,1,$1+$1,$6,$7,$8,$9,0*
20,1,$1+$1,$8,$9,$2,$3,0*%
%AMFreePoly0*
4,1,25,0.375350,0.844196,0.387473,0.833842,0.833842,0.387473,0.862349,0.331525,0.863600,0.315631,0.863600,-0.315631,0.844196,-0.375350,0.833842,-0.387473,0.387473,-0.833842,0.331525,-0.862349,0.315631,-0.863600,-0.315631,-0.863600,-0.375350,-0.844196,-0.387473,-0.833842,-0.833842,-0.387473,-0.862349,-0.331525,-0.863600,-0.315631,-0.863600,0.315631,-0.844196,0.375350,-0.833842,0.387473,
-0.387473,0.833842,-0.331525,0.862349,-0.315631,0.863600,0.315631,0.863600,0.375350,0.844196,0.375350,0.844196,$1*%
G04 Aperture macros list end*
%ADD10R,1.900000X1.300000*%
%ADD11R,2.800000X1.000000*%
%ADD12R,0.800000X1.000000*%
%ADD13R,1.200000X1.000000*%
%ADD14R,1.200000X0.700000*%
%ADD15R,1.475000X0.450000*%
%ADD16FreePoly0,0.000000*%
%ADD17RoundRect,0.250000X0.262500X0.450000X-0.262500X0.450000X-0.262500X-0.450000X0.262500X-0.450000X0*%
%ADD18RoundRect,0.225000X0.225000X0.250000X-0.225000X0.250000X-0.225000X-0.250000X0.225000X-0.250000X0*%
%ADD19RoundRect,0.250000X-0.262500X-0.450000X0.262500X-0.450000X0.262500X0.450000X-0.262500X0.450000X0*%
%ADD20R,1.700000X1.700000*%
%ADD21O,1.700000X1.700000*%
%ADD22RoundRect,0.375000X0.375000X-0.625000X0.375000X0.625000X-0.375000X0.625000X-0.375000X-0.625000X0*%
%ADD23RoundRect,0.500000X1.400000X-0.500000X1.400000X0.500000X-1.400000X0.500000X-1.400000X-0.500000X0*%
G04 APERTURE END LIST*
D10*
%TO.C,J2*%
X136453189Y-109660000D03*
D11*
X136903189Y-96160000D03*
D12*
X141053189Y-96160000D03*
D13*
X147253189Y-96160000D03*
X151553189Y-107310000D03*
D14*
X151553189Y-97110000D03*
X151553189Y-98060000D03*
X151553189Y-99160000D03*
X151553189Y-100260000D03*
X151553189Y-101360000D03*
X151553189Y-102460000D03*
X151553189Y-103560000D03*
X151553189Y-104660000D03*
X151553189Y-105760000D03*
%TD*%
D15*
%TO.C,IC2*%
X160812000Y-95550000D03*
X160812000Y-96200000D03*
X160812000Y-96850000D03*
X160812000Y-97500000D03*
X160812000Y-98150000D03*
X160812000Y-98800000D03*
X160812000Y-99450000D03*
X166688000Y-99450000D03*
X166688000Y-98800000D03*
X166688000Y-98150000D03*
X166688000Y-97500000D03*
X166688000Y-96850000D03*
X166688000Y-96200000D03*
X166688000Y-95550000D03*
%TD*%
D16*
%TO.C,JP1*%
X145550000Y-91600000D03*
X145550000Y-89060000D03*
X148090000Y-91600000D03*
X148090000Y-89060000D03*
X150630000Y-91600000D03*
X150630000Y-89060000D03*
X153170000Y-91600000D03*
X153170000Y-89060000D03*
X155710000Y-91600000D03*
X155710000Y-89060000D03*
X158250000Y-91600000D03*
X158250000Y-89060000D03*
X160790000Y-91600000D03*
X160790000Y-89060000D03*
X163330000Y-91600000D03*
X163330000Y-89060000D03*
X165870000Y-91600000D03*
X165870000Y-89060000D03*
X168410000Y-91600000D03*
X168410000Y-89060000D03*
X170950000Y-91600000D03*
X170950000Y-89060000D03*
%TD*%
D17*
%TO.C,R3*%
X175750000Y-105750000D03*
X173925000Y-105750000D03*
%TD*%
D18*
%TO.C,C1*%
X158250000Y-112750000D03*
X156700000Y-112750000D03*
%TD*%
D17*
%TO.C,R4*%
X175750000Y-108250000D03*
X173925000Y-108250000D03*
%TD*%
D19*
%TO.C,R1*%
X173925000Y-103000000D03*
X175750000Y-103000000D03*
%TD*%
%TO.C,R2*%
X173925000Y-110750000D03*
X175750000Y-110750000D03*
%TD*%
D20*
%TO.C,J3*%
X178553189Y-98060000D03*
D21*
X178553189Y-100600000D03*
X178553189Y-103140000D03*
X178553189Y-105680000D03*
X178553189Y-108220000D03*
X178553189Y-110760000D03*
%TD*%
D16*
%TO.C,JP2*%
X145473189Y-118100000D03*
X145473189Y-115560000D03*
X148013189Y-118100000D03*
X148013189Y-115560000D03*
X150553189Y-118100000D03*
X150553189Y-115560000D03*
X153093189Y-118100000D03*
X153093189Y-115560000D03*
X155633189Y-118100000D03*
X155633189Y-115560000D03*
X158173189Y-118100000D03*
X158173189Y-115560000D03*
X160713189Y-118100000D03*
X160713189Y-115560000D03*
X163253189Y-118100000D03*
X163253189Y-115560000D03*
X165793189Y-118100000D03*
X165793189Y-115560000D03*
X168333189Y-118100000D03*
X168333189Y-115560000D03*
X170873189Y-118100000D03*
X170873189Y-115560000D03*
%TD*%
D22*
%TO.C,U1*%
X156200000Y-110050000D03*
X158500000Y-110050000D03*
D23*
X158500000Y-103750000D03*
D22*
X160800000Y-110050000D03*
%TD*%
M02*
