%TF.GenerationSoftware,KiCad,Pcbnew,8.0.5*%
%TF.CreationDate,2024-10-04T20:46:04-04:00*%
%TF.ProjectId,memory card,6d656d6f-7279-4206-9361-72642e6b6963,V2*%
%TF.SameCoordinates,Original*%
%TF.FileFunction,Drillmap*%
%TF.FilePolarity,Positive*%
%FSLAX45Y45*%
G04 Gerber Fmt 4.5, Leading zero omitted, Abs format (unit mm)*
G04 Created by KiCad (PCBNEW 8.0.5) date 2024-10-04 20:46:04*
%MOMM*%
%LPD*%
G01*
G04 APERTURE LIST*
%ADD10C,0.050000*%
%ADD11C,0.200000*%
%ADD12C,0.100000*%
%ADD13C,0.101600*%
G04 APERTURE END LIST*
D10*
X18205319Y-11956000D02*
G75*
G02*
X18155319Y-12005999I-49999J0D01*
G01*
X18205319Y-11956000D02*
X18205319Y-9106000D01*
X13755319Y-8706000D02*
X17805319Y-8706000D01*
X17805319Y-8706000D02*
G75*
G02*
X18205320Y-9106000I1J-400000D01*
G01*
X13355319Y-11956000D02*
X13355319Y-9106000D01*
X13405319Y-12006000D02*
G75*
G02*
X13355320Y-11956000I1J50000D01*
G01*
X13355319Y-9106000D02*
G75*
G02*
X13755319Y-8705999I400001J0D01*
G01*
X13405319Y-12006000D02*
X18155319Y-12006000D01*
D11*
D12*
X15415319Y-11360000D02*
X15445319Y-11390000D01*
X15445319Y-11360000D02*
X15415319Y-11390000D01*
X15485000Y-10335000D02*
X15515000Y-10365000D01*
X15515000Y-10335000D02*
X15485000Y-10365000D01*
X15495000Y-9670000D02*
X15525000Y-9700000D01*
X15525000Y-9670000D02*
X15495000Y-9700000D01*
X15735000Y-9460000D02*
X15765000Y-9490000D01*
X15765000Y-9460000D02*
X15735000Y-9490000D01*
X15735000Y-9860000D02*
X15765000Y-9890000D01*
X15765000Y-9860000D02*
X15735000Y-9890000D01*
X15945000Y-9760000D02*
X15975000Y-9790000D01*
X15975000Y-9760000D02*
X15945000Y-9790000D01*
X15985000Y-10110000D02*
X16015000Y-10140000D01*
X16015000Y-10110000D02*
X15985000Y-10140000D01*
X16195000Y-9810000D02*
X16225000Y-9840000D01*
X16225000Y-9810000D02*
X16195000Y-9840000D01*
X16220000Y-10660000D02*
X16250000Y-10690000D01*
X16250000Y-10660000D02*
X16220000Y-10690000D01*
X16235000Y-10860000D02*
X16265000Y-10890000D01*
X16265000Y-10860000D02*
X16235000Y-10890000D01*
X16258000Y-9660000D02*
X16288000Y-9690000D01*
X16288000Y-9660000D02*
X16258000Y-9690000D01*
X16258000Y-10510000D02*
X16288000Y-10540000D01*
X16288000Y-10510000D02*
X16258000Y-10540000D01*
X16380073Y-9930074D02*
X16410073Y-9960074D01*
X16410073Y-9930074D02*
X16380073Y-9960074D01*
X16385000Y-9310000D02*
X16415000Y-9340000D01*
X16415000Y-9310000D02*
X16385000Y-9340000D01*
X16385000Y-10085000D02*
X16415000Y-10115000D01*
X16415000Y-10085000D02*
X16385000Y-10115000D01*
X16385000Y-10785000D02*
X16415000Y-10815000D01*
X16415000Y-10785000D02*
X16385000Y-10815000D01*
X16765899Y-9985000D02*
X16795899Y-10015000D01*
X16795899Y-9985000D02*
X16765899Y-10015000D01*
X16765899Y-10910000D02*
X16795899Y-10940000D01*
X16795899Y-10910000D02*
X16765899Y-10940000D01*
X17185000Y-11185000D02*
X17215000Y-11215000D01*
X17215000Y-11185000D02*
X17185000Y-11215000D01*
X17260000Y-10410000D02*
X17290000Y-10440000D01*
X17290000Y-10410000D02*
X17260000Y-10440000D01*
X17310000Y-11335000D02*
X17340000Y-11365000D01*
X17340000Y-11335000D02*
X17310000Y-11365000D01*
X17905319Y-9806000D02*
G75*
G02*
X17805319Y-9806000I-50000J0D01*
G01*
X17805319Y-9806000D02*
G75*
G02*
X17905319Y-9806000I50000J0D01*
G01*
X17905319Y-10060000D02*
G75*
G02*
X17805319Y-10060000I-50000J0D01*
G01*
X17805319Y-10060000D02*
G75*
G02*
X17905319Y-10060000I50000J0D01*
G01*
X17905319Y-10314000D02*
G75*
G02*
X17805319Y-10314000I-50000J0D01*
G01*
X17805319Y-10314000D02*
G75*
G02*
X17905319Y-10314000I50000J0D01*
G01*
X17905319Y-10568000D02*
G75*
G02*
X17805319Y-10568000I-50000J0D01*
G01*
X17805319Y-10568000D02*
G75*
G02*
X17905319Y-10568000I50000J0D01*
G01*
X17905319Y-10822000D02*
G75*
G02*
X17805319Y-10822000I-50000J0D01*
G01*
X17805319Y-10822000D02*
G75*
G02*
X17905319Y-10822000I50000J0D01*
G01*
X17905319Y-11076000D02*
G75*
G02*
X17805319Y-11076000I-50000J0D01*
G01*
X17805319Y-11076000D02*
G75*
G02*
X17905319Y-11076000I50000J0D01*
G01*
D13*
X14547319Y-11505200D02*
X14547319Y-11606800D01*
X14496519Y-11556000D02*
X14598119Y-11556000D01*
X14547319Y-11759200D02*
X14547319Y-11860800D01*
X14496519Y-11810000D02*
X14598119Y-11810000D01*
X14555000Y-8855200D02*
X14555000Y-8956800D01*
X14504200Y-8906000D02*
X14605800Y-8906000D01*
X14555000Y-9109200D02*
X14555000Y-9210800D01*
X14504200Y-9160000D02*
X14605800Y-9160000D01*
X14801319Y-11505200D02*
X14801319Y-11606800D01*
X14750519Y-11556000D02*
X14852119Y-11556000D01*
X14801319Y-11759200D02*
X14801319Y-11860800D01*
X14750519Y-11810000D02*
X14852119Y-11810000D01*
X14809000Y-8855200D02*
X14809000Y-8956800D01*
X14758200Y-8906000D02*
X14859800Y-8906000D01*
X14809000Y-9109200D02*
X14809000Y-9210800D01*
X14758200Y-9160000D02*
X14859800Y-9160000D01*
X15055319Y-11505200D02*
X15055319Y-11606800D01*
X15004519Y-11556000D02*
X15106119Y-11556000D01*
X15055319Y-11759200D02*
X15055319Y-11860800D01*
X15004519Y-11810000D02*
X15106119Y-11810000D01*
X15063000Y-8855200D02*
X15063000Y-8956800D01*
X15012200Y-8906000D02*
X15113800Y-8906000D01*
X15063000Y-9109200D02*
X15063000Y-9210800D01*
X15012200Y-9160000D02*
X15113800Y-9160000D01*
X15309319Y-11505200D02*
X15309319Y-11606800D01*
X15258519Y-11556000D02*
X15360119Y-11556000D01*
X15309319Y-11759200D02*
X15309319Y-11860800D01*
X15258519Y-11810000D02*
X15360119Y-11810000D01*
X15317000Y-8855200D02*
X15317000Y-8956800D01*
X15266200Y-8906000D02*
X15367800Y-8906000D01*
X15317000Y-9109200D02*
X15317000Y-9210800D01*
X15266200Y-9160000D02*
X15367800Y-9160000D01*
X15563319Y-11505200D02*
X15563319Y-11606800D01*
X15512519Y-11556000D02*
X15614119Y-11556000D01*
X15563319Y-11759200D02*
X15563319Y-11860800D01*
X15512519Y-11810000D02*
X15614119Y-11810000D01*
X15571000Y-8855200D02*
X15571000Y-8956800D01*
X15520200Y-8906000D02*
X15621800Y-8906000D01*
X15571000Y-9109200D02*
X15571000Y-9210800D01*
X15520200Y-9160000D02*
X15621800Y-9160000D01*
X15817319Y-11505200D02*
X15817319Y-11606800D01*
X15766519Y-11556000D02*
X15868119Y-11556000D01*
X15817319Y-11759200D02*
X15817319Y-11860800D01*
X15766519Y-11810000D02*
X15868119Y-11810000D01*
X15825000Y-8855200D02*
X15825000Y-8956800D01*
X15774200Y-8906000D02*
X15875800Y-8906000D01*
X15825000Y-9109200D02*
X15825000Y-9210800D01*
X15774200Y-9160000D02*
X15875800Y-9160000D01*
X16071319Y-11505200D02*
X16071319Y-11606800D01*
X16020519Y-11556000D02*
X16122119Y-11556000D01*
X16071319Y-11759200D02*
X16071319Y-11860800D01*
X16020519Y-11810000D02*
X16122119Y-11810000D01*
X16079000Y-8855200D02*
X16079000Y-8956800D01*
X16028200Y-8906000D02*
X16129800Y-8906000D01*
X16079000Y-9109200D02*
X16079000Y-9210800D01*
X16028200Y-9160000D02*
X16129800Y-9160000D01*
X16325319Y-11505200D02*
X16325319Y-11606800D01*
X16274519Y-11556000D02*
X16376119Y-11556000D01*
X16325319Y-11759200D02*
X16325319Y-11860800D01*
X16274519Y-11810000D02*
X16376119Y-11810000D01*
X16333000Y-8855200D02*
X16333000Y-8956800D01*
X16282200Y-8906000D02*
X16383800Y-8906000D01*
X16333000Y-9109200D02*
X16333000Y-9210800D01*
X16282200Y-9160000D02*
X16383800Y-9160000D01*
X16579319Y-11505200D02*
X16579319Y-11606800D01*
X16528519Y-11556000D02*
X16630119Y-11556000D01*
X16579319Y-11759200D02*
X16579319Y-11860800D01*
X16528519Y-11810000D02*
X16630119Y-11810000D01*
X16587000Y-8855200D02*
X16587000Y-8956800D01*
X16536200Y-8906000D02*
X16637800Y-8906000D01*
X16587000Y-9109200D02*
X16587000Y-9210800D01*
X16536200Y-9160000D02*
X16637800Y-9160000D01*
X16833319Y-11505200D02*
X16833319Y-11606800D01*
X16782519Y-11556000D02*
X16884119Y-11556000D01*
X16833319Y-11759200D02*
X16833319Y-11860800D01*
X16782519Y-11810000D02*
X16884119Y-11810000D01*
X16841000Y-8855200D02*
X16841000Y-8956800D01*
X16790200Y-8906000D02*
X16891800Y-8906000D01*
X16841000Y-9109200D02*
X16841000Y-9210800D01*
X16790200Y-9160000D02*
X16891800Y-9160000D01*
X17087319Y-11505200D02*
X17087319Y-11606800D01*
X17036519Y-11556000D02*
X17138119Y-11556000D01*
X17087319Y-11759200D02*
X17087319Y-11860800D01*
X17036519Y-11810000D02*
X17138119Y-11810000D01*
X17095000Y-8855200D02*
X17095000Y-8956800D01*
X17044200Y-8906000D02*
X17145800Y-8906000D01*
X17095000Y-9109200D02*
X17095000Y-9210800D01*
X17044200Y-9160000D02*
X17145800Y-9160000D01*
D11*
X13613596Y-12319984D02*
X13613596Y-12119984D01*
X13613596Y-12119984D02*
X13661215Y-12119984D01*
X13661215Y-12119984D02*
X13689786Y-12129508D01*
X13689786Y-12129508D02*
X13708834Y-12148555D01*
X13708834Y-12148555D02*
X13718358Y-12167603D01*
X13718358Y-12167603D02*
X13727881Y-12205698D01*
X13727881Y-12205698D02*
X13727881Y-12234269D01*
X13727881Y-12234269D02*
X13718358Y-12272365D01*
X13718358Y-12272365D02*
X13708834Y-12291412D01*
X13708834Y-12291412D02*
X13689786Y-12310460D01*
X13689786Y-12310460D02*
X13661215Y-12319984D01*
X13661215Y-12319984D02*
X13613596Y-12319984D01*
X13813596Y-12319984D02*
X13813596Y-12186650D01*
X13813596Y-12224746D02*
X13823119Y-12205698D01*
X13823119Y-12205698D02*
X13832643Y-12196174D01*
X13832643Y-12196174D02*
X13851691Y-12186650D01*
X13851691Y-12186650D02*
X13870739Y-12186650D01*
X13937405Y-12319984D02*
X13937405Y-12186650D01*
X13937405Y-12119984D02*
X13927881Y-12129508D01*
X13927881Y-12129508D02*
X13937405Y-12139031D01*
X13937405Y-12139031D02*
X13946929Y-12129508D01*
X13946929Y-12129508D02*
X13937405Y-12119984D01*
X13937405Y-12119984D02*
X13937405Y-12139031D01*
X14061215Y-12319984D02*
X14042167Y-12310460D01*
X14042167Y-12310460D02*
X14032643Y-12291412D01*
X14032643Y-12291412D02*
X14032643Y-12119984D01*
X14165977Y-12319984D02*
X14146929Y-12310460D01*
X14146929Y-12310460D02*
X14137405Y-12291412D01*
X14137405Y-12291412D02*
X14137405Y-12119984D01*
X14394548Y-12319984D02*
X14394548Y-12119984D01*
X14394548Y-12119984D02*
X14461215Y-12262841D01*
X14461215Y-12262841D02*
X14527881Y-12119984D01*
X14527881Y-12119984D02*
X14527881Y-12319984D01*
X14708834Y-12319984D02*
X14708834Y-12215222D01*
X14708834Y-12215222D02*
X14699310Y-12196174D01*
X14699310Y-12196174D02*
X14680262Y-12186650D01*
X14680262Y-12186650D02*
X14642167Y-12186650D01*
X14642167Y-12186650D02*
X14623119Y-12196174D01*
X14708834Y-12310460D02*
X14689786Y-12319984D01*
X14689786Y-12319984D02*
X14642167Y-12319984D01*
X14642167Y-12319984D02*
X14623119Y-12310460D01*
X14623119Y-12310460D02*
X14613596Y-12291412D01*
X14613596Y-12291412D02*
X14613596Y-12272365D01*
X14613596Y-12272365D02*
X14623119Y-12253317D01*
X14623119Y-12253317D02*
X14642167Y-12243793D01*
X14642167Y-12243793D02*
X14689786Y-12243793D01*
X14689786Y-12243793D02*
X14708834Y-12234269D01*
X14804072Y-12186650D02*
X14804072Y-12386650D01*
X14804072Y-12196174D02*
X14823119Y-12186650D01*
X14823119Y-12186650D02*
X14861215Y-12186650D01*
X14861215Y-12186650D02*
X14880262Y-12196174D01*
X14880262Y-12196174D02*
X14889786Y-12205698D01*
X14889786Y-12205698D02*
X14899310Y-12224746D01*
X14899310Y-12224746D02*
X14899310Y-12281888D01*
X14899310Y-12281888D02*
X14889786Y-12300936D01*
X14889786Y-12300936D02*
X14880262Y-12310460D01*
X14880262Y-12310460D02*
X14861215Y-12319984D01*
X14861215Y-12319984D02*
X14823119Y-12319984D01*
X14823119Y-12319984D02*
X14804072Y-12310460D01*
X14985024Y-12300936D02*
X14994548Y-12310460D01*
X14994548Y-12310460D02*
X14985024Y-12319984D01*
X14985024Y-12319984D02*
X14975500Y-12310460D01*
X14975500Y-12310460D02*
X14985024Y-12300936D01*
X14985024Y-12300936D02*
X14985024Y-12319984D01*
X14985024Y-12196174D02*
X14994548Y-12205698D01*
X14994548Y-12205698D02*
X14985024Y-12215222D01*
X14985024Y-12215222D02*
X14975500Y-12205698D01*
X14975500Y-12205698D02*
X14985024Y-12196174D01*
X14985024Y-12196174D02*
X14985024Y-12215222D01*
D12*
X13322819Y-12633500D02*
X13352819Y-12663500D01*
X13352819Y-12633500D02*
X13322819Y-12663500D01*
D11*
X13651691Y-12539984D02*
X13670739Y-12539984D01*
X13670739Y-12539984D02*
X13689786Y-12549508D01*
X13689786Y-12549508D02*
X13699310Y-12559031D01*
X13699310Y-12559031D02*
X13708834Y-12578079D01*
X13708834Y-12578079D02*
X13718358Y-12616174D01*
X13718358Y-12616174D02*
X13718358Y-12663793D01*
X13718358Y-12663793D02*
X13708834Y-12701888D01*
X13708834Y-12701888D02*
X13699310Y-12720936D01*
X13699310Y-12720936D02*
X13689786Y-12730460D01*
X13689786Y-12730460D02*
X13670739Y-12739984D01*
X13670739Y-12739984D02*
X13651691Y-12739984D01*
X13651691Y-12739984D02*
X13632643Y-12730460D01*
X13632643Y-12730460D02*
X13623119Y-12720936D01*
X13623119Y-12720936D02*
X13613596Y-12701888D01*
X13613596Y-12701888D02*
X13604072Y-12663793D01*
X13604072Y-12663793D02*
X13604072Y-12616174D01*
X13604072Y-12616174D02*
X13613596Y-12578079D01*
X13613596Y-12578079D02*
X13623119Y-12559031D01*
X13623119Y-12559031D02*
X13632643Y-12549508D01*
X13632643Y-12549508D02*
X13651691Y-12539984D01*
X13804072Y-12720936D02*
X13813596Y-12730460D01*
X13813596Y-12730460D02*
X13804072Y-12739984D01*
X13804072Y-12739984D02*
X13794548Y-12730460D01*
X13794548Y-12730460D02*
X13804072Y-12720936D01*
X13804072Y-12720936D02*
X13804072Y-12739984D01*
X13880262Y-12539984D02*
X14004072Y-12539984D01*
X14004072Y-12539984D02*
X13937405Y-12616174D01*
X13937405Y-12616174D02*
X13965977Y-12616174D01*
X13965977Y-12616174D02*
X13985024Y-12625698D01*
X13985024Y-12625698D02*
X13994548Y-12635222D01*
X13994548Y-12635222D02*
X14004072Y-12654269D01*
X14004072Y-12654269D02*
X14004072Y-12701888D01*
X14004072Y-12701888D02*
X13994548Y-12720936D01*
X13994548Y-12720936D02*
X13985024Y-12730460D01*
X13985024Y-12730460D02*
X13965977Y-12739984D01*
X13965977Y-12739984D02*
X13908834Y-12739984D01*
X13908834Y-12739984D02*
X13889786Y-12730460D01*
X13889786Y-12730460D02*
X13880262Y-12720936D01*
X14127881Y-12539984D02*
X14146929Y-12539984D01*
X14146929Y-12539984D02*
X14165977Y-12549508D01*
X14165977Y-12549508D02*
X14175500Y-12559031D01*
X14175500Y-12559031D02*
X14185024Y-12578079D01*
X14185024Y-12578079D02*
X14194548Y-12616174D01*
X14194548Y-12616174D02*
X14194548Y-12663793D01*
X14194548Y-12663793D02*
X14185024Y-12701888D01*
X14185024Y-12701888D02*
X14175500Y-12720936D01*
X14175500Y-12720936D02*
X14165977Y-12730460D01*
X14165977Y-12730460D02*
X14146929Y-12739984D01*
X14146929Y-12739984D02*
X14127881Y-12739984D01*
X14127881Y-12739984D02*
X14108834Y-12730460D01*
X14108834Y-12730460D02*
X14099310Y-12720936D01*
X14099310Y-12720936D02*
X14089786Y-12701888D01*
X14089786Y-12701888D02*
X14080262Y-12663793D01*
X14080262Y-12663793D02*
X14080262Y-12616174D01*
X14080262Y-12616174D02*
X14089786Y-12578079D01*
X14089786Y-12578079D02*
X14099310Y-12559031D01*
X14099310Y-12559031D02*
X14108834Y-12549508D01*
X14108834Y-12549508D02*
X14127881Y-12539984D01*
X14318358Y-12539984D02*
X14337405Y-12539984D01*
X14337405Y-12539984D02*
X14356453Y-12549508D01*
X14356453Y-12549508D02*
X14365977Y-12559031D01*
X14365977Y-12559031D02*
X14375500Y-12578079D01*
X14375500Y-12578079D02*
X14385024Y-12616174D01*
X14385024Y-12616174D02*
X14385024Y-12663793D01*
X14385024Y-12663793D02*
X14375500Y-12701888D01*
X14375500Y-12701888D02*
X14365977Y-12720936D01*
X14365977Y-12720936D02*
X14356453Y-12730460D01*
X14356453Y-12730460D02*
X14337405Y-12739984D01*
X14337405Y-12739984D02*
X14318358Y-12739984D01*
X14318358Y-12739984D02*
X14299310Y-12730460D01*
X14299310Y-12730460D02*
X14289786Y-12720936D01*
X14289786Y-12720936D02*
X14280262Y-12701888D01*
X14280262Y-12701888D02*
X14270739Y-12663793D01*
X14270739Y-12663793D02*
X14270739Y-12616174D01*
X14270739Y-12616174D02*
X14280262Y-12578079D01*
X14280262Y-12578079D02*
X14289786Y-12559031D01*
X14289786Y-12559031D02*
X14299310Y-12549508D01*
X14299310Y-12549508D02*
X14318358Y-12539984D01*
X14470739Y-12739984D02*
X14470739Y-12606650D01*
X14470739Y-12625698D02*
X14480262Y-12616174D01*
X14480262Y-12616174D02*
X14499310Y-12606650D01*
X14499310Y-12606650D02*
X14527881Y-12606650D01*
X14527881Y-12606650D02*
X14546929Y-12616174D01*
X14546929Y-12616174D02*
X14556453Y-12635222D01*
X14556453Y-12635222D02*
X14556453Y-12739984D01*
X14556453Y-12635222D02*
X14565977Y-12616174D01*
X14565977Y-12616174D02*
X14585024Y-12606650D01*
X14585024Y-12606650D02*
X14613596Y-12606650D01*
X14613596Y-12606650D02*
X14632643Y-12616174D01*
X14632643Y-12616174D02*
X14642167Y-12635222D01*
X14642167Y-12635222D02*
X14642167Y-12739984D01*
X14737405Y-12739984D02*
X14737405Y-12606650D01*
X14737405Y-12625698D02*
X14746929Y-12616174D01*
X14746929Y-12616174D02*
X14765977Y-12606650D01*
X14765977Y-12606650D02*
X14794548Y-12606650D01*
X14794548Y-12606650D02*
X14813596Y-12616174D01*
X14813596Y-12616174D02*
X14823120Y-12635222D01*
X14823120Y-12635222D02*
X14823120Y-12739984D01*
X14823120Y-12635222D02*
X14832643Y-12616174D01*
X14832643Y-12616174D02*
X14851691Y-12606650D01*
X14851691Y-12606650D02*
X14880262Y-12606650D01*
X14880262Y-12606650D02*
X14899310Y-12616174D01*
X14899310Y-12616174D02*
X14908834Y-12635222D01*
X14908834Y-12635222D02*
X14908834Y-12739984D01*
X15299310Y-12530460D02*
X15127882Y-12787603D01*
X15556453Y-12539984D02*
X15575501Y-12539984D01*
X15575501Y-12539984D02*
X15594548Y-12549508D01*
X15594548Y-12549508D02*
X15604072Y-12559031D01*
X15604072Y-12559031D02*
X15613596Y-12578079D01*
X15613596Y-12578079D02*
X15623120Y-12616174D01*
X15623120Y-12616174D02*
X15623120Y-12663793D01*
X15623120Y-12663793D02*
X15613596Y-12701888D01*
X15613596Y-12701888D02*
X15604072Y-12720936D01*
X15604072Y-12720936D02*
X15594548Y-12730460D01*
X15594548Y-12730460D02*
X15575501Y-12739984D01*
X15575501Y-12739984D02*
X15556453Y-12739984D01*
X15556453Y-12739984D02*
X15537405Y-12730460D01*
X15537405Y-12730460D02*
X15527882Y-12720936D01*
X15527882Y-12720936D02*
X15518358Y-12701888D01*
X15518358Y-12701888D02*
X15508834Y-12663793D01*
X15508834Y-12663793D02*
X15508834Y-12616174D01*
X15508834Y-12616174D02*
X15518358Y-12578079D01*
X15518358Y-12578079D02*
X15527882Y-12559031D01*
X15527882Y-12559031D02*
X15537405Y-12549508D01*
X15537405Y-12549508D02*
X15556453Y-12539984D01*
X15708834Y-12720936D02*
X15718358Y-12730460D01*
X15718358Y-12730460D02*
X15708834Y-12739984D01*
X15708834Y-12739984D02*
X15699310Y-12730460D01*
X15699310Y-12730460D02*
X15708834Y-12720936D01*
X15708834Y-12720936D02*
X15708834Y-12739984D01*
X15842167Y-12539984D02*
X15861215Y-12539984D01*
X15861215Y-12539984D02*
X15880263Y-12549508D01*
X15880263Y-12549508D02*
X15889786Y-12559031D01*
X15889786Y-12559031D02*
X15899310Y-12578079D01*
X15899310Y-12578079D02*
X15908834Y-12616174D01*
X15908834Y-12616174D02*
X15908834Y-12663793D01*
X15908834Y-12663793D02*
X15899310Y-12701888D01*
X15899310Y-12701888D02*
X15889786Y-12720936D01*
X15889786Y-12720936D02*
X15880263Y-12730460D01*
X15880263Y-12730460D02*
X15861215Y-12739984D01*
X15861215Y-12739984D02*
X15842167Y-12739984D01*
X15842167Y-12739984D02*
X15823120Y-12730460D01*
X15823120Y-12730460D02*
X15813596Y-12720936D01*
X15813596Y-12720936D02*
X15804072Y-12701888D01*
X15804072Y-12701888D02*
X15794548Y-12663793D01*
X15794548Y-12663793D02*
X15794548Y-12616174D01*
X15794548Y-12616174D02*
X15804072Y-12578079D01*
X15804072Y-12578079D02*
X15813596Y-12559031D01*
X15813596Y-12559031D02*
X15823120Y-12549508D01*
X15823120Y-12549508D02*
X15842167Y-12539984D01*
X16099310Y-12739984D02*
X15985024Y-12739984D01*
X16042167Y-12739984D02*
X16042167Y-12539984D01*
X16042167Y-12539984D02*
X16023120Y-12568555D01*
X16023120Y-12568555D02*
X16004072Y-12587603D01*
X16004072Y-12587603D02*
X15985024Y-12597127D01*
X16289786Y-12739984D02*
X16175501Y-12739984D01*
X16232643Y-12739984D02*
X16232643Y-12539984D01*
X16232643Y-12539984D02*
X16213596Y-12568555D01*
X16213596Y-12568555D02*
X16194548Y-12587603D01*
X16194548Y-12587603D02*
X16175501Y-12597127D01*
X16404072Y-12625698D02*
X16385024Y-12616174D01*
X16385024Y-12616174D02*
X16375501Y-12606650D01*
X16375501Y-12606650D02*
X16365977Y-12587603D01*
X16365977Y-12587603D02*
X16365977Y-12578079D01*
X16365977Y-12578079D02*
X16375501Y-12559031D01*
X16375501Y-12559031D02*
X16385024Y-12549508D01*
X16385024Y-12549508D02*
X16404072Y-12539984D01*
X16404072Y-12539984D02*
X16442167Y-12539984D01*
X16442167Y-12539984D02*
X16461215Y-12549508D01*
X16461215Y-12549508D02*
X16470739Y-12559031D01*
X16470739Y-12559031D02*
X16480263Y-12578079D01*
X16480263Y-12578079D02*
X16480263Y-12587603D01*
X16480263Y-12587603D02*
X16470739Y-12606650D01*
X16470739Y-12606650D02*
X16461215Y-12616174D01*
X16461215Y-12616174D02*
X16442167Y-12625698D01*
X16442167Y-12625698D02*
X16404072Y-12625698D01*
X16404072Y-12625698D02*
X16385024Y-12635222D01*
X16385024Y-12635222D02*
X16375501Y-12644746D01*
X16375501Y-12644746D02*
X16365977Y-12663793D01*
X16365977Y-12663793D02*
X16365977Y-12701888D01*
X16365977Y-12701888D02*
X16375501Y-12720936D01*
X16375501Y-12720936D02*
X16385024Y-12730460D01*
X16385024Y-12730460D02*
X16404072Y-12739984D01*
X16404072Y-12739984D02*
X16442167Y-12739984D01*
X16442167Y-12739984D02*
X16461215Y-12730460D01*
X16461215Y-12730460D02*
X16470739Y-12720936D01*
X16470739Y-12720936D02*
X16480263Y-12701888D01*
X16480263Y-12701888D02*
X16480263Y-12663793D01*
X16480263Y-12663793D02*
X16470739Y-12644746D01*
X16470739Y-12644746D02*
X16461215Y-12635222D01*
X16461215Y-12635222D02*
X16442167Y-12625698D01*
X16556453Y-12539984D02*
X16556453Y-12578079D01*
X16632644Y-12539984D02*
X16632644Y-12578079D01*
X16927882Y-12816174D02*
X16918358Y-12806650D01*
X16918358Y-12806650D02*
X16899310Y-12778079D01*
X16899310Y-12778079D02*
X16889787Y-12759031D01*
X16889787Y-12759031D02*
X16880263Y-12730460D01*
X16880263Y-12730460D02*
X16870739Y-12682841D01*
X16870739Y-12682841D02*
X16870739Y-12644746D01*
X16870739Y-12644746D02*
X16880263Y-12597127D01*
X16880263Y-12597127D02*
X16889787Y-12568555D01*
X16889787Y-12568555D02*
X16899310Y-12549508D01*
X16899310Y-12549508D02*
X16918358Y-12520936D01*
X16918358Y-12520936D02*
X16927882Y-12511412D01*
X16994548Y-12559031D02*
X17004072Y-12549508D01*
X17004072Y-12549508D02*
X17023120Y-12539984D01*
X17023120Y-12539984D02*
X17070739Y-12539984D01*
X17070739Y-12539984D02*
X17089787Y-12549508D01*
X17089787Y-12549508D02*
X17099310Y-12559031D01*
X17099310Y-12559031D02*
X17108834Y-12578079D01*
X17108834Y-12578079D02*
X17108834Y-12597127D01*
X17108834Y-12597127D02*
X17099310Y-12625698D01*
X17099310Y-12625698D02*
X16985025Y-12739984D01*
X16985025Y-12739984D02*
X17108834Y-12739984D01*
X17299310Y-12739984D02*
X17185025Y-12739984D01*
X17242167Y-12739984D02*
X17242167Y-12539984D01*
X17242167Y-12539984D02*
X17223120Y-12568555D01*
X17223120Y-12568555D02*
X17204072Y-12587603D01*
X17204072Y-12587603D02*
X17185025Y-12597127D01*
X17537406Y-12739984D02*
X17537406Y-12539984D01*
X17623120Y-12739984D02*
X17623120Y-12635222D01*
X17623120Y-12635222D02*
X17613596Y-12616174D01*
X17613596Y-12616174D02*
X17594549Y-12606650D01*
X17594549Y-12606650D02*
X17565977Y-12606650D01*
X17565977Y-12606650D02*
X17546929Y-12616174D01*
X17546929Y-12616174D02*
X17537406Y-12625698D01*
X17746929Y-12739984D02*
X17727882Y-12730460D01*
X17727882Y-12730460D02*
X17718358Y-12720936D01*
X17718358Y-12720936D02*
X17708834Y-12701888D01*
X17708834Y-12701888D02*
X17708834Y-12644746D01*
X17708834Y-12644746D02*
X17718358Y-12625698D01*
X17718358Y-12625698D02*
X17727882Y-12616174D01*
X17727882Y-12616174D02*
X17746929Y-12606650D01*
X17746929Y-12606650D02*
X17775501Y-12606650D01*
X17775501Y-12606650D02*
X17794549Y-12616174D01*
X17794549Y-12616174D02*
X17804072Y-12625698D01*
X17804072Y-12625698D02*
X17813596Y-12644746D01*
X17813596Y-12644746D02*
X17813596Y-12701888D01*
X17813596Y-12701888D02*
X17804072Y-12720936D01*
X17804072Y-12720936D02*
X17794549Y-12730460D01*
X17794549Y-12730460D02*
X17775501Y-12739984D01*
X17775501Y-12739984D02*
X17746929Y-12739984D01*
X17927882Y-12739984D02*
X17908834Y-12730460D01*
X17908834Y-12730460D02*
X17899310Y-12711412D01*
X17899310Y-12711412D02*
X17899310Y-12539984D01*
X18080263Y-12730460D02*
X18061215Y-12739984D01*
X18061215Y-12739984D02*
X18023120Y-12739984D01*
X18023120Y-12739984D02*
X18004072Y-12730460D01*
X18004072Y-12730460D02*
X17994549Y-12711412D01*
X17994549Y-12711412D02*
X17994549Y-12635222D01*
X17994549Y-12635222D02*
X18004072Y-12616174D01*
X18004072Y-12616174D02*
X18023120Y-12606650D01*
X18023120Y-12606650D02*
X18061215Y-12606650D01*
X18061215Y-12606650D02*
X18080263Y-12616174D01*
X18080263Y-12616174D02*
X18089787Y-12635222D01*
X18089787Y-12635222D02*
X18089787Y-12654269D01*
X18089787Y-12654269D02*
X17994549Y-12673317D01*
X18165977Y-12730460D02*
X18185025Y-12739984D01*
X18185025Y-12739984D02*
X18223120Y-12739984D01*
X18223120Y-12739984D02*
X18242168Y-12730460D01*
X18242168Y-12730460D02*
X18251691Y-12711412D01*
X18251691Y-12711412D02*
X18251691Y-12701888D01*
X18251691Y-12701888D02*
X18242168Y-12682841D01*
X18242168Y-12682841D02*
X18223120Y-12673317D01*
X18223120Y-12673317D02*
X18194549Y-12673317D01*
X18194549Y-12673317D02*
X18175501Y-12663793D01*
X18175501Y-12663793D02*
X18165977Y-12644746D01*
X18165977Y-12644746D02*
X18165977Y-12635222D01*
X18165977Y-12635222D02*
X18175501Y-12616174D01*
X18175501Y-12616174D02*
X18194549Y-12606650D01*
X18194549Y-12606650D02*
X18223120Y-12606650D01*
X18223120Y-12606650D02*
X18242168Y-12616174D01*
X18318358Y-12816174D02*
X18327882Y-12806650D01*
X18327882Y-12806650D02*
X18346930Y-12778079D01*
X18346930Y-12778079D02*
X18356453Y-12759031D01*
X18356453Y-12759031D02*
X18365977Y-12730460D01*
X18365977Y-12730460D02*
X18375501Y-12682841D01*
X18375501Y-12682841D02*
X18375501Y-12644746D01*
X18375501Y-12644746D02*
X18365977Y-12597127D01*
X18365977Y-12597127D02*
X18356453Y-12568555D01*
X18356453Y-12568555D02*
X18346930Y-12549508D01*
X18346930Y-12549508D02*
X18327882Y-12520936D01*
X18327882Y-12520936D02*
X18318358Y-12511412D01*
D12*
X13352819Y-12912500D02*
G75*
G02*
X13252819Y-12912500I-50000J0D01*
G01*
X13252819Y-12912500D02*
G75*
G02*
X13352819Y-12912500I50000J0D01*
G01*
D11*
X13718358Y-13003984D02*
X13604072Y-13003984D01*
X13661215Y-13003984D02*
X13661215Y-12803984D01*
X13661215Y-12803984D02*
X13642167Y-12832555D01*
X13642167Y-12832555D02*
X13623119Y-12851603D01*
X13623119Y-12851603D02*
X13604072Y-12861127D01*
X13804072Y-12984936D02*
X13813596Y-12994460D01*
X13813596Y-12994460D02*
X13804072Y-13003984D01*
X13804072Y-13003984D02*
X13794548Y-12994460D01*
X13794548Y-12994460D02*
X13804072Y-12984936D01*
X13804072Y-12984936D02*
X13804072Y-13003984D01*
X13937405Y-12803984D02*
X13956453Y-12803984D01*
X13956453Y-12803984D02*
X13975500Y-12813508D01*
X13975500Y-12813508D02*
X13985024Y-12823031D01*
X13985024Y-12823031D02*
X13994548Y-12842079D01*
X13994548Y-12842079D02*
X14004072Y-12880174D01*
X14004072Y-12880174D02*
X14004072Y-12927793D01*
X14004072Y-12927793D02*
X13994548Y-12965888D01*
X13994548Y-12965888D02*
X13985024Y-12984936D01*
X13985024Y-12984936D02*
X13975500Y-12994460D01*
X13975500Y-12994460D02*
X13956453Y-13003984D01*
X13956453Y-13003984D02*
X13937405Y-13003984D01*
X13937405Y-13003984D02*
X13918358Y-12994460D01*
X13918358Y-12994460D02*
X13908834Y-12984936D01*
X13908834Y-12984936D02*
X13899310Y-12965888D01*
X13899310Y-12965888D02*
X13889786Y-12927793D01*
X13889786Y-12927793D02*
X13889786Y-12880174D01*
X13889786Y-12880174D02*
X13899310Y-12842079D01*
X13899310Y-12842079D02*
X13908834Y-12823031D01*
X13908834Y-12823031D02*
X13918358Y-12813508D01*
X13918358Y-12813508D02*
X13937405Y-12803984D01*
X14127881Y-12803984D02*
X14146929Y-12803984D01*
X14146929Y-12803984D02*
X14165977Y-12813508D01*
X14165977Y-12813508D02*
X14175500Y-12823031D01*
X14175500Y-12823031D02*
X14185024Y-12842079D01*
X14185024Y-12842079D02*
X14194548Y-12880174D01*
X14194548Y-12880174D02*
X14194548Y-12927793D01*
X14194548Y-12927793D02*
X14185024Y-12965888D01*
X14185024Y-12965888D02*
X14175500Y-12984936D01*
X14175500Y-12984936D02*
X14165977Y-12994460D01*
X14165977Y-12994460D02*
X14146929Y-13003984D01*
X14146929Y-13003984D02*
X14127881Y-13003984D01*
X14127881Y-13003984D02*
X14108834Y-12994460D01*
X14108834Y-12994460D02*
X14099310Y-12984936D01*
X14099310Y-12984936D02*
X14089786Y-12965888D01*
X14089786Y-12965888D02*
X14080262Y-12927793D01*
X14080262Y-12927793D02*
X14080262Y-12880174D01*
X14080262Y-12880174D02*
X14089786Y-12842079D01*
X14089786Y-12842079D02*
X14099310Y-12823031D01*
X14099310Y-12823031D02*
X14108834Y-12813508D01*
X14108834Y-12813508D02*
X14127881Y-12803984D01*
X14318358Y-12803984D02*
X14337405Y-12803984D01*
X14337405Y-12803984D02*
X14356453Y-12813508D01*
X14356453Y-12813508D02*
X14365977Y-12823031D01*
X14365977Y-12823031D02*
X14375500Y-12842079D01*
X14375500Y-12842079D02*
X14385024Y-12880174D01*
X14385024Y-12880174D02*
X14385024Y-12927793D01*
X14385024Y-12927793D02*
X14375500Y-12965888D01*
X14375500Y-12965888D02*
X14365977Y-12984936D01*
X14365977Y-12984936D02*
X14356453Y-12994460D01*
X14356453Y-12994460D02*
X14337405Y-13003984D01*
X14337405Y-13003984D02*
X14318358Y-13003984D01*
X14318358Y-13003984D02*
X14299310Y-12994460D01*
X14299310Y-12994460D02*
X14289786Y-12984936D01*
X14289786Y-12984936D02*
X14280262Y-12965888D01*
X14280262Y-12965888D02*
X14270739Y-12927793D01*
X14270739Y-12927793D02*
X14270739Y-12880174D01*
X14270739Y-12880174D02*
X14280262Y-12842079D01*
X14280262Y-12842079D02*
X14289786Y-12823031D01*
X14289786Y-12823031D02*
X14299310Y-12813508D01*
X14299310Y-12813508D02*
X14318358Y-12803984D01*
X14470739Y-13003984D02*
X14470739Y-12870650D01*
X14470739Y-12889698D02*
X14480262Y-12880174D01*
X14480262Y-12880174D02*
X14499310Y-12870650D01*
X14499310Y-12870650D02*
X14527881Y-12870650D01*
X14527881Y-12870650D02*
X14546929Y-12880174D01*
X14546929Y-12880174D02*
X14556453Y-12899222D01*
X14556453Y-12899222D02*
X14556453Y-13003984D01*
X14556453Y-12899222D02*
X14565977Y-12880174D01*
X14565977Y-12880174D02*
X14585024Y-12870650D01*
X14585024Y-12870650D02*
X14613596Y-12870650D01*
X14613596Y-12870650D02*
X14632643Y-12880174D01*
X14632643Y-12880174D02*
X14642167Y-12899222D01*
X14642167Y-12899222D02*
X14642167Y-13003984D01*
X14737405Y-13003984D02*
X14737405Y-12870650D01*
X14737405Y-12889698D02*
X14746929Y-12880174D01*
X14746929Y-12880174D02*
X14765977Y-12870650D01*
X14765977Y-12870650D02*
X14794548Y-12870650D01*
X14794548Y-12870650D02*
X14813596Y-12880174D01*
X14813596Y-12880174D02*
X14823120Y-12899222D01*
X14823120Y-12899222D02*
X14823120Y-13003984D01*
X14823120Y-12899222D02*
X14832643Y-12880174D01*
X14832643Y-12880174D02*
X14851691Y-12870650D01*
X14851691Y-12870650D02*
X14880262Y-12870650D01*
X14880262Y-12870650D02*
X14899310Y-12880174D01*
X14899310Y-12880174D02*
X14908834Y-12899222D01*
X14908834Y-12899222D02*
X14908834Y-13003984D01*
X15299310Y-12794460D02*
X15127882Y-13051603D01*
X15556453Y-12803984D02*
X15575501Y-12803984D01*
X15575501Y-12803984D02*
X15594548Y-12813508D01*
X15594548Y-12813508D02*
X15604072Y-12823031D01*
X15604072Y-12823031D02*
X15613596Y-12842079D01*
X15613596Y-12842079D02*
X15623120Y-12880174D01*
X15623120Y-12880174D02*
X15623120Y-12927793D01*
X15623120Y-12927793D02*
X15613596Y-12965888D01*
X15613596Y-12965888D02*
X15604072Y-12984936D01*
X15604072Y-12984936D02*
X15594548Y-12994460D01*
X15594548Y-12994460D02*
X15575501Y-13003984D01*
X15575501Y-13003984D02*
X15556453Y-13003984D01*
X15556453Y-13003984D02*
X15537405Y-12994460D01*
X15537405Y-12994460D02*
X15527882Y-12984936D01*
X15527882Y-12984936D02*
X15518358Y-12965888D01*
X15518358Y-12965888D02*
X15508834Y-12927793D01*
X15508834Y-12927793D02*
X15508834Y-12880174D01*
X15508834Y-12880174D02*
X15518358Y-12842079D01*
X15518358Y-12842079D02*
X15527882Y-12823031D01*
X15527882Y-12823031D02*
X15537405Y-12813508D01*
X15537405Y-12813508D02*
X15556453Y-12803984D01*
X15708834Y-12984936D02*
X15718358Y-12994460D01*
X15718358Y-12994460D02*
X15708834Y-13003984D01*
X15708834Y-13003984D02*
X15699310Y-12994460D01*
X15699310Y-12994460D02*
X15708834Y-12984936D01*
X15708834Y-12984936D02*
X15708834Y-13003984D01*
X15842167Y-12803984D02*
X15861215Y-12803984D01*
X15861215Y-12803984D02*
X15880263Y-12813508D01*
X15880263Y-12813508D02*
X15889786Y-12823031D01*
X15889786Y-12823031D02*
X15899310Y-12842079D01*
X15899310Y-12842079D02*
X15908834Y-12880174D01*
X15908834Y-12880174D02*
X15908834Y-12927793D01*
X15908834Y-12927793D02*
X15899310Y-12965888D01*
X15899310Y-12965888D02*
X15889786Y-12984936D01*
X15889786Y-12984936D02*
X15880263Y-12994460D01*
X15880263Y-12994460D02*
X15861215Y-13003984D01*
X15861215Y-13003984D02*
X15842167Y-13003984D01*
X15842167Y-13003984D02*
X15823120Y-12994460D01*
X15823120Y-12994460D02*
X15813596Y-12984936D01*
X15813596Y-12984936D02*
X15804072Y-12965888D01*
X15804072Y-12965888D02*
X15794548Y-12927793D01*
X15794548Y-12927793D02*
X15794548Y-12880174D01*
X15794548Y-12880174D02*
X15804072Y-12842079D01*
X15804072Y-12842079D02*
X15813596Y-12823031D01*
X15813596Y-12823031D02*
X15823120Y-12813508D01*
X15823120Y-12813508D02*
X15842167Y-12803984D01*
X15975501Y-12803984D02*
X16099310Y-12803984D01*
X16099310Y-12803984D02*
X16032643Y-12880174D01*
X16032643Y-12880174D02*
X16061215Y-12880174D01*
X16061215Y-12880174D02*
X16080263Y-12889698D01*
X16080263Y-12889698D02*
X16089786Y-12899222D01*
X16089786Y-12899222D02*
X16099310Y-12918269D01*
X16099310Y-12918269D02*
X16099310Y-12965888D01*
X16099310Y-12965888D02*
X16089786Y-12984936D01*
X16089786Y-12984936D02*
X16080263Y-12994460D01*
X16080263Y-12994460D02*
X16061215Y-13003984D01*
X16061215Y-13003984D02*
X16004072Y-13003984D01*
X16004072Y-13003984D02*
X15985024Y-12994460D01*
X15985024Y-12994460D02*
X15975501Y-12984936D01*
X16194548Y-13003984D02*
X16232643Y-13003984D01*
X16232643Y-13003984D02*
X16251691Y-12994460D01*
X16251691Y-12994460D02*
X16261215Y-12984936D01*
X16261215Y-12984936D02*
X16280263Y-12956365D01*
X16280263Y-12956365D02*
X16289786Y-12918269D01*
X16289786Y-12918269D02*
X16289786Y-12842079D01*
X16289786Y-12842079D02*
X16280263Y-12823031D01*
X16280263Y-12823031D02*
X16270739Y-12813508D01*
X16270739Y-12813508D02*
X16251691Y-12803984D01*
X16251691Y-12803984D02*
X16213596Y-12803984D01*
X16213596Y-12803984D02*
X16194548Y-12813508D01*
X16194548Y-12813508D02*
X16185024Y-12823031D01*
X16185024Y-12823031D02*
X16175501Y-12842079D01*
X16175501Y-12842079D02*
X16175501Y-12889698D01*
X16175501Y-12889698D02*
X16185024Y-12908746D01*
X16185024Y-12908746D02*
X16194548Y-12918269D01*
X16194548Y-12918269D02*
X16213596Y-12927793D01*
X16213596Y-12927793D02*
X16251691Y-12927793D01*
X16251691Y-12927793D02*
X16270739Y-12918269D01*
X16270739Y-12918269D02*
X16280263Y-12908746D01*
X16280263Y-12908746D02*
X16289786Y-12889698D01*
X16461215Y-12870650D02*
X16461215Y-13003984D01*
X16413596Y-12794460D02*
X16365977Y-12937317D01*
X16365977Y-12937317D02*
X16489786Y-12937317D01*
X16556453Y-12803984D02*
X16556453Y-12842079D01*
X16632644Y-12803984D02*
X16632644Y-12842079D01*
X16927882Y-13080174D02*
X16918358Y-13070650D01*
X16918358Y-13070650D02*
X16899310Y-13042079D01*
X16899310Y-13042079D02*
X16889787Y-13023031D01*
X16889787Y-13023031D02*
X16880263Y-12994460D01*
X16880263Y-12994460D02*
X16870739Y-12946841D01*
X16870739Y-12946841D02*
X16870739Y-12908746D01*
X16870739Y-12908746D02*
X16880263Y-12861127D01*
X16880263Y-12861127D02*
X16889787Y-12832555D01*
X16889787Y-12832555D02*
X16899310Y-12813508D01*
X16899310Y-12813508D02*
X16918358Y-12784936D01*
X16918358Y-12784936D02*
X16927882Y-12775412D01*
X17089787Y-12803984D02*
X17051691Y-12803984D01*
X17051691Y-12803984D02*
X17032644Y-12813508D01*
X17032644Y-12813508D02*
X17023120Y-12823031D01*
X17023120Y-12823031D02*
X17004072Y-12851603D01*
X17004072Y-12851603D02*
X16994548Y-12889698D01*
X16994548Y-12889698D02*
X16994548Y-12965888D01*
X16994548Y-12965888D02*
X17004072Y-12984936D01*
X17004072Y-12984936D02*
X17013596Y-12994460D01*
X17013596Y-12994460D02*
X17032644Y-13003984D01*
X17032644Y-13003984D02*
X17070739Y-13003984D01*
X17070739Y-13003984D02*
X17089787Y-12994460D01*
X17089787Y-12994460D02*
X17099310Y-12984936D01*
X17099310Y-12984936D02*
X17108834Y-12965888D01*
X17108834Y-12965888D02*
X17108834Y-12918269D01*
X17108834Y-12918269D02*
X17099310Y-12899222D01*
X17099310Y-12899222D02*
X17089787Y-12889698D01*
X17089787Y-12889698D02*
X17070739Y-12880174D01*
X17070739Y-12880174D02*
X17032644Y-12880174D01*
X17032644Y-12880174D02*
X17013596Y-12889698D01*
X17013596Y-12889698D02*
X17004072Y-12899222D01*
X17004072Y-12899222D02*
X16994548Y-12918269D01*
X17346929Y-13003984D02*
X17346929Y-12803984D01*
X17432644Y-13003984D02*
X17432644Y-12899222D01*
X17432644Y-12899222D02*
X17423120Y-12880174D01*
X17423120Y-12880174D02*
X17404072Y-12870650D01*
X17404072Y-12870650D02*
X17375501Y-12870650D01*
X17375501Y-12870650D02*
X17356453Y-12880174D01*
X17356453Y-12880174D02*
X17346929Y-12889698D01*
X17556453Y-13003984D02*
X17537406Y-12994460D01*
X17537406Y-12994460D02*
X17527882Y-12984936D01*
X17527882Y-12984936D02*
X17518358Y-12965888D01*
X17518358Y-12965888D02*
X17518358Y-12908746D01*
X17518358Y-12908746D02*
X17527882Y-12889698D01*
X17527882Y-12889698D02*
X17537406Y-12880174D01*
X17537406Y-12880174D02*
X17556453Y-12870650D01*
X17556453Y-12870650D02*
X17585025Y-12870650D01*
X17585025Y-12870650D02*
X17604072Y-12880174D01*
X17604072Y-12880174D02*
X17613596Y-12889698D01*
X17613596Y-12889698D02*
X17623120Y-12908746D01*
X17623120Y-12908746D02*
X17623120Y-12965888D01*
X17623120Y-12965888D02*
X17613596Y-12984936D01*
X17613596Y-12984936D02*
X17604072Y-12994460D01*
X17604072Y-12994460D02*
X17585025Y-13003984D01*
X17585025Y-13003984D02*
X17556453Y-13003984D01*
X17737406Y-13003984D02*
X17718358Y-12994460D01*
X17718358Y-12994460D02*
X17708834Y-12975412D01*
X17708834Y-12975412D02*
X17708834Y-12803984D01*
X17889787Y-12994460D02*
X17870739Y-13003984D01*
X17870739Y-13003984D02*
X17832644Y-13003984D01*
X17832644Y-13003984D02*
X17813596Y-12994460D01*
X17813596Y-12994460D02*
X17804072Y-12975412D01*
X17804072Y-12975412D02*
X17804072Y-12899222D01*
X17804072Y-12899222D02*
X17813596Y-12880174D01*
X17813596Y-12880174D02*
X17832644Y-12870650D01*
X17832644Y-12870650D02*
X17870739Y-12870650D01*
X17870739Y-12870650D02*
X17889787Y-12880174D01*
X17889787Y-12880174D02*
X17899310Y-12899222D01*
X17899310Y-12899222D02*
X17899310Y-12918269D01*
X17899310Y-12918269D02*
X17804072Y-12937317D01*
X17975501Y-12994460D02*
X17994549Y-13003984D01*
X17994549Y-13003984D02*
X18032644Y-13003984D01*
X18032644Y-13003984D02*
X18051691Y-12994460D01*
X18051691Y-12994460D02*
X18061215Y-12975412D01*
X18061215Y-12975412D02*
X18061215Y-12965888D01*
X18061215Y-12965888D02*
X18051691Y-12946841D01*
X18051691Y-12946841D02*
X18032644Y-12937317D01*
X18032644Y-12937317D02*
X18004072Y-12937317D01*
X18004072Y-12937317D02*
X17985025Y-12927793D01*
X17985025Y-12927793D02*
X17975501Y-12908746D01*
X17975501Y-12908746D02*
X17975501Y-12899222D01*
X17975501Y-12899222D02*
X17985025Y-12880174D01*
X17985025Y-12880174D02*
X18004072Y-12870650D01*
X18004072Y-12870650D02*
X18032644Y-12870650D01*
X18032644Y-12870650D02*
X18051691Y-12880174D01*
X18127882Y-13080174D02*
X18137406Y-13070650D01*
X18137406Y-13070650D02*
X18156453Y-13042079D01*
X18156453Y-13042079D02*
X18165977Y-13023031D01*
X18165977Y-13023031D02*
X18175501Y-12994460D01*
X18175501Y-12994460D02*
X18185025Y-12946841D01*
X18185025Y-12946841D02*
X18185025Y-12908746D01*
X18185025Y-12908746D02*
X18175501Y-12861127D01*
X18175501Y-12861127D02*
X18165977Y-12832555D01*
X18165977Y-12832555D02*
X18156453Y-12813508D01*
X18156453Y-12813508D02*
X18137406Y-12784936D01*
X18137406Y-12784936D02*
X18127882Y-12775412D01*
D13*
X13302019Y-13125700D02*
X13302019Y-13227300D01*
X13251219Y-13176500D02*
X13352819Y-13176500D01*
D11*
X13718358Y-13267984D02*
X13604072Y-13267984D01*
X13661215Y-13267984D02*
X13661215Y-13067984D01*
X13661215Y-13067984D02*
X13642167Y-13096555D01*
X13642167Y-13096555D02*
X13623119Y-13115603D01*
X13623119Y-13115603D02*
X13604072Y-13125127D01*
X13804072Y-13248936D02*
X13813596Y-13258460D01*
X13813596Y-13258460D02*
X13804072Y-13267984D01*
X13804072Y-13267984D02*
X13794548Y-13258460D01*
X13794548Y-13258460D02*
X13804072Y-13248936D01*
X13804072Y-13248936D02*
X13804072Y-13267984D01*
X13937405Y-13067984D02*
X13956453Y-13067984D01*
X13956453Y-13067984D02*
X13975500Y-13077508D01*
X13975500Y-13077508D02*
X13985024Y-13087031D01*
X13985024Y-13087031D02*
X13994548Y-13106079D01*
X13994548Y-13106079D02*
X14004072Y-13144174D01*
X14004072Y-13144174D02*
X14004072Y-13191793D01*
X14004072Y-13191793D02*
X13994548Y-13229888D01*
X13994548Y-13229888D02*
X13985024Y-13248936D01*
X13985024Y-13248936D02*
X13975500Y-13258460D01*
X13975500Y-13258460D02*
X13956453Y-13267984D01*
X13956453Y-13267984D02*
X13937405Y-13267984D01*
X13937405Y-13267984D02*
X13918358Y-13258460D01*
X13918358Y-13258460D02*
X13908834Y-13248936D01*
X13908834Y-13248936D02*
X13899310Y-13229888D01*
X13899310Y-13229888D02*
X13889786Y-13191793D01*
X13889786Y-13191793D02*
X13889786Y-13144174D01*
X13889786Y-13144174D02*
X13899310Y-13106079D01*
X13899310Y-13106079D02*
X13908834Y-13087031D01*
X13908834Y-13087031D02*
X13918358Y-13077508D01*
X13918358Y-13077508D02*
X13937405Y-13067984D01*
X14194548Y-13267984D02*
X14080262Y-13267984D01*
X14137405Y-13267984D02*
X14137405Y-13067984D01*
X14137405Y-13067984D02*
X14118358Y-13096555D01*
X14118358Y-13096555D02*
X14099310Y-13115603D01*
X14099310Y-13115603D02*
X14080262Y-13125127D01*
X14365977Y-13067984D02*
X14327881Y-13067984D01*
X14327881Y-13067984D02*
X14308834Y-13077508D01*
X14308834Y-13077508D02*
X14299310Y-13087031D01*
X14299310Y-13087031D02*
X14280262Y-13115603D01*
X14280262Y-13115603D02*
X14270739Y-13153698D01*
X14270739Y-13153698D02*
X14270739Y-13229888D01*
X14270739Y-13229888D02*
X14280262Y-13248936D01*
X14280262Y-13248936D02*
X14289786Y-13258460D01*
X14289786Y-13258460D02*
X14308834Y-13267984D01*
X14308834Y-13267984D02*
X14346929Y-13267984D01*
X14346929Y-13267984D02*
X14365977Y-13258460D01*
X14365977Y-13258460D02*
X14375500Y-13248936D01*
X14375500Y-13248936D02*
X14385024Y-13229888D01*
X14385024Y-13229888D02*
X14385024Y-13182269D01*
X14385024Y-13182269D02*
X14375500Y-13163222D01*
X14375500Y-13163222D02*
X14365977Y-13153698D01*
X14365977Y-13153698D02*
X14346929Y-13144174D01*
X14346929Y-13144174D02*
X14308834Y-13144174D01*
X14308834Y-13144174D02*
X14289786Y-13153698D01*
X14289786Y-13153698D02*
X14280262Y-13163222D01*
X14280262Y-13163222D02*
X14270739Y-13182269D01*
X14470739Y-13267984D02*
X14470739Y-13134650D01*
X14470739Y-13153698D02*
X14480262Y-13144174D01*
X14480262Y-13144174D02*
X14499310Y-13134650D01*
X14499310Y-13134650D02*
X14527881Y-13134650D01*
X14527881Y-13134650D02*
X14546929Y-13144174D01*
X14546929Y-13144174D02*
X14556453Y-13163222D01*
X14556453Y-13163222D02*
X14556453Y-13267984D01*
X14556453Y-13163222D02*
X14565977Y-13144174D01*
X14565977Y-13144174D02*
X14585024Y-13134650D01*
X14585024Y-13134650D02*
X14613596Y-13134650D01*
X14613596Y-13134650D02*
X14632643Y-13144174D01*
X14632643Y-13144174D02*
X14642167Y-13163222D01*
X14642167Y-13163222D02*
X14642167Y-13267984D01*
X14737405Y-13267984D02*
X14737405Y-13134650D01*
X14737405Y-13153698D02*
X14746929Y-13144174D01*
X14746929Y-13144174D02*
X14765977Y-13134650D01*
X14765977Y-13134650D02*
X14794548Y-13134650D01*
X14794548Y-13134650D02*
X14813596Y-13144174D01*
X14813596Y-13144174D02*
X14823120Y-13163222D01*
X14823120Y-13163222D02*
X14823120Y-13267984D01*
X14823120Y-13163222D02*
X14832643Y-13144174D01*
X14832643Y-13144174D02*
X14851691Y-13134650D01*
X14851691Y-13134650D02*
X14880262Y-13134650D01*
X14880262Y-13134650D02*
X14899310Y-13144174D01*
X14899310Y-13144174D02*
X14908834Y-13163222D01*
X14908834Y-13163222D02*
X14908834Y-13267984D01*
X15299310Y-13058460D02*
X15127882Y-13315603D01*
X15556453Y-13067984D02*
X15575501Y-13067984D01*
X15575501Y-13067984D02*
X15594548Y-13077508D01*
X15594548Y-13077508D02*
X15604072Y-13087031D01*
X15604072Y-13087031D02*
X15613596Y-13106079D01*
X15613596Y-13106079D02*
X15623120Y-13144174D01*
X15623120Y-13144174D02*
X15623120Y-13191793D01*
X15623120Y-13191793D02*
X15613596Y-13229888D01*
X15613596Y-13229888D02*
X15604072Y-13248936D01*
X15604072Y-13248936D02*
X15594548Y-13258460D01*
X15594548Y-13258460D02*
X15575501Y-13267984D01*
X15575501Y-13267984D02*
X15556453Y-13267984D01*
X15556453Y-13267984D02*
X15537405Y-13258460D01*
X15537405Y-13258460D02*
X15527882Y-13248936D01*
X15527882Y-13248936D02*
X15518358Y-13229888D01*
X15518358Y-13229888D02*
X15508834Y-13191793D01*
X15508834Y-13191793D02*
X15508834Y-13144174D01*
X15508834Y-13144174D02*
X15518358Y-13106079D01*
X15518358Y-13106079D02*
X15527882Y-13087031D01*
X15527882Y-13087031D02*
X15537405Y-13077508D01*
X15537405Y-13077508D02*
X15556453Y-13067984D01*
X15708834Y-13248936D02*
X15718358Y-13258460D01*
X15718358Y-13258460D02*
X15708834Y-13267984D01*
X15708834Y-13267984D02*
X15699310Y-13258460D01*
X15699310Y-13258460D02*
X15708834Y-13248936D01*
X15708834Y-13248936D02*
X15708834Y-13267984D01*
X15842167Y-13067984D02*
X15861215Y-13067984D01*
X15861215Y-13067984D02*
X15880263Y-13077508D01*
X15880263Y-13077508D02*
X15889786Y-13087031D01*
X15889786Y-13087031D02*
X15899310Y-13106079D01*
X15899310Y-13106079D02*
X15908834Y-13144174D01*
X15908834Y-13144174D02*
X15908834Y-13191793D01*
X15908834Y-13191793D02*
X15899310Y-13229888D01*
X15899310Y-13229888D02*
X15889786Y-13248936D01*
X15889786Y-13248936D02*
X15880263Y-13258460D01*
X15880263Y-13258460D02*
X15861215Y-13267984D01*
X15861215Y-13267984D02*
X15842167Y-13267984D01*
X15842167Y-13267984D02*
X15823120Y-13258460D01*
X15823120Y-13258460D02*
X15813596Y-13248936D01*
X15813596Y-13248936D02*
X15804072Y-13229888D01*
X15804072Y-13229888D02*
X15794548Y-13191793D01*
X15794548Y-13191793D02*
X15794548Y-13144174D01*
X15794548Y-13144174D02*
X15804072Y-13106079D01*
X15804072Y-13106079D02*
X15813596Y-13087031D01*
X15813596Y-13087031D02*
X15823120Y-13077508D01*
X15823120Y-13077508D02*
X15842167Y-13067984D01*
X16080263Y-13134650D02*
X16080263Y-13267984D01*
X16032643Y-13058460D02*
X15985024Y-13201317D01*
X15985024Y-13201317D02*
X16108834Y-13201317D01*
X16223120Y-13067984D02*
X16242167Y-13067984D01*
X16242167Y-13067984D02*
X16261215Y-13077508D01*
X16261215Y-13077508D02*
X16270739Y-13087031D01*
X16270739Y-13087031D02*
X16280263Y-13106079D01*
X16280263Y-13106079D02*
X16289786Y-13144174D01*
X16289786Y-13144174D02*
X16289786Y-13191793D01*
X16289786Y-13191793D02*
X16280263Y-13229888D01*
X16280263Y-13229888D02*
X16270739Y-13248936D01*
X16270739Y-13248936D02*
X16261215Y-13258460D01*
X16261215Y-13258460D02*
X16242167Y-13267984D01*
X16242167Y-13267984D02*
X16223120Y-13267984D01*
X16223120Y-13267984D02*
X16204072Y-13258460D01*
X16204072Y-13258460D02*
X16194548Y-13248936D01*
X16194548Y-13248936D02*
X16185024Y-13229888D01*
X16185024Y-13229888D02*
X16175501Y-13191793D01*
X16175501Y-13191793D02*
X16175501Y-13144174D01*
X16175501Y-13144174D02*
X16185024Y-13106079D01*
X16185024Y-13106079D02*
X16194548Y-13087031D01*
X16194548Y-13087031D02*
X16204072Y-13077508D01*
X16204072Y-13077508D02*
X16223120Y-13067984D01*
X16413596Y-13067984D02*
X16432644Y-13067984D01*
X16432644Y-13067984D02*
X16451691Y-13077508D01*
X16451691Y-13077508D02*
X16461215Y-13087031D01*
X16461215Y-13087031D02*
X16470739Y-13106079D01*
X16470739Y-13106079D02*
X16480263Y-13144174D01*
X16480263Y-13144174D02*
X16480263Y-13191793D01*
X16480263Y-13191793D02*
X16470739Y-13229888D01*
X16470739Y-13229888D02*
X16461215Y-13248936D01*
X16461215Y-13248936D02*
X16451691Y-13258460D01*
X16451691Y-13258460D02*
X16432644Y-13267984D01*
X16432644Y-13267984D02*
X16413596Y-13267984D01*
X16413596Y-13267984D02*
X16394548Y-13258460D01*
X16394548Y-13258460D02*
X16385024Y-13248936D01*
X16385024Y-13248936D02*
X16375501Y-13229888D01*
X16375501Y-13229888D02*
X16365977Y-13191793D01*
X16365977Y-13191793D02*
X16365977Y-13144174D01*
X16365977Y-13144174D02*
X16375501Y-13106079D01*
X16375501Y-13106079D02*
X16385024Y-13087031D01*
X16385024Y-13087031D02*
X16394548Y-13077508D01*
X16394548Y-13077508D02*
X16413596Y-13067984D01*
X16556453Y-13067984D02*
X16556453Y-13106079D01*
X16632644Y-13067984D02*
X16632644Y-13106079D01*
X16927882Y-13344174D02*
X16918358Y-13334650D01*
X16918358Y-13334650D02*
X16899310Y-13306079D01*
X16899310Y-13306079D02*
X16889787Y-13287031D01*
X16889787Y-13287031D02*
X16880263Y-13258460D01*
X16880263Y-13258460D02*
X16870739Y-13210841D01*
X16870739Y-13210841D02*
X16870739Y-13172746D01*
X16870739Y-13172746D02*
X16880263Y-13125127D01*
X16880263Y-13125127D02*
X16889787Y-13096555D01*
X16889787Y-13096555D02*
X16899310Y-13077508D01*
X16899310Y-13077508D02*
X16918358Y-13048936D01*
X16918358Y-13048936D02*
X16927882Y-13039412D01*
X17089787Y-13134650D02*
X17089787Y-13267984D01*
X17042167Y-13058460D02*
X16994548Y-13201317D01*
X16994548Y-13201317D02*
X17118358Y-13201317D01*
X17280263Y-13134650D02*
X17280263Y-13267984D01*
X17232644Y-13058460D02*
X17185025Y-13201317D01*
X17185025Y-13201317D02*
X17308834Y-13201317D01*
X17537406Y-13267984D02*
X17537406Y-13067984D01*
X17623120Y-13267984D02*
X17623120Y-13163222D01*
X17623120Y-13163222D02*
X17613596Y-13144174D01*
X17613596Y-13144174D02*
X17594549Y-13134650D01*
X17594549Y-13134650D02*
X17565977Y-13134650D01*
X17565977Y-13134650D02*
X17546929Y-13144174D01*
X17546929Y-13144174D02*
X17537406Y-13153698D01*
X17746929Y-13267984D02*
X17727882Y-13258460D01*
X17727882Y-13258460D02*
X17718358Y-13248936D01*
X17718358Y-13248936D02*
X17708834Y-13229888D01*
X17708834Y-13229888D02*
X17708834Y-13172746D01*
X17708834Y-13172746D02*
X17718358Y-13153698D01*
X17718358Y-13153698D02*
X17727882Y-13144174D01*
X17727882Y-13144174D02*
X17746929Y-13134650D01*
X17746929Y-13134650D02*
X17775501Y-13134650D01*
X17775501Y-13134650D02*
X17794549Y-13144174D01*
X17794549Y-13144174D02*
X17804072Y-13153698D01*
X17804072Y-13153698D02*
X17813596Y-13172746D01*
X17813596Y-13172746D02*
X17813596Y-13229888D01*
X17813596Y-13229888D02*
X17804072Y-13248936D01*
X17804072Y-13248936D02*
X17794549Y-13258460D01*
X17794549Y-13258460D02*
X17775501Y-13267984D01*
X17775501Y-13267984D02*
X17746929Y-13267984D01*
X17927882Y-13267984D02*
X17908834Y-13258460D01*
X17908834Y-13258460D02*
X17899310Y-13239412D01*
X17899310Y-13239412D02*
X17899310Y-13067984D01*
X18080263Y-13258460D02*
X18061215Y-13267984D01*
X18061215Y-13267984D02*
X18023120Y-13267984D01*
X18023120Y-13267984D02*
X18004072Y-13258460D01*
X18004072Y-13258460D02*
X17994549Y-13239412D01*
X17994549Y-13239412D02*
X17994549Y-13163222D01*
X17994549Y-13163222D02*
X18004072Y-13144174D01*
X18004072Y-13144174D02*
X18023120Y-13134650D01*
X18023120Y-13134650D02*
X18061215Y-13134650D01*
X18061215Y-13134650D02*
X18080263Y-13144174D01*
X18080263Y-13144174D02*
X18089787Y-13163222D01*
X18089787Y-13163222D02*
X18089787Y-13182269D01*
X18089787Y-13182269D02*
X17994549Y-13201317D01*
X18165977Y-13258460D02*
X18185025Y-13267984D01*
X18185025Y-13267984D02*
X18223120Y-13267984D01*
X18223120Y-13267984D02*
X18242168Y-13258460D01*
X18242168Y-13258460D02*
X18251691Y-13239412D01*
X18251691Y-13239412D02*
X18251691Y-13229888D01*
X18251691Y-13229888D02*
X18242168Y-13210841D01*
X18242168Y-13210841D02*
X18223120Y-13201317D01*
X18223120Y-13201317D02*
X18194549Y-13201317D01*
X18194549Y-13201317D02*
X18175501Y-13191793D01*
X18175501Y-13191793D02*
X18165977Y-13172746D01*
X18165977Y-13172746D02*
X18165977Y-13163222D01*
X18165977Y-13163222D02*
X18175501Y-13144174D01*
X18175501Y-13144174D02*
X18194549Y-13134650D01*
X18194549Y-13134650D02*
X18223120Y-13134650D01*
X18223120Y-13134650D02*
X18242168Y-13144174D01*
X18318358Y-13344174D02*
X18327882Y-13334650D01*
X18327882Y-13334650D02*
X18346930Y-13306079D01*
X18346930Y-13306079D02*
X18356453Y-13287031D01*
X18356453Y-13287031D02*
X18365977Y-13258460D01*
X18365977Y-13258460D02*
X18375501Y-13210841D01*
X18375501Y-13210841D02*
X18375501Y-13172746D01*
X18375501Y-13172746D02*
X18365977Y-13125127D01*
X18365977Y-13125127D02*
X18356453Y-13096555D01*
X18356453Y-13096555D02*
X18346930Y-13077508D01*
X18346930Y-13077508D02*
X18327882Y-13048936D01*
X18327882Y-13048936D02*
X18318358Y-13039412D01*
M02*
